<svg width="14" height="14" viewBox="0 0 14 14" fill="none" xmlns="http://www.w3.org/2000/svg">
<path d="M11.5 3.25C12.3203 3.25 13 3.92969 13 4.75V10.75C13 11.5938 12.3203 12.25 11.5 12.25H2.5C1.65625 12.25 1 11.5938 1 10.75V4.75C1 3.92969 1.65625 3.25 2.5 3.25H4V2.125C4 1.51562 4.49219 1 5.125 1H8.875C9.48438 1 10 1.51562 10 2.125V3.25H11.5ZM4.75 2.125V3.25H9.25V2.125C9.25 1.9375 9.0625 1.75 8.875 1.75H5.125C4.91406 1.75 4.75 1.9375 4.75 2.125ZM12.25 10.75V7.75H8.875V9.25C8.875 9.46094 8.6875 9.625 8.5 9.625H5.5C5.28906 9.625 5.125 9.46094 5.125 9.25V7.75H1.75V10.75C1.75 11.1719 2.07812 11.5 2.5 11.5H11.5C11.8984 11.5 12.25 11.1719 12.25 10.75ZM5.875 8.875H8.125V7.75H5.875V8.875ZM12.25 7V4.75C12.25 4.35156 11.8984 4 11.5 4H2.5C2.07812 4 1.75 4.35156 1.75 4.75V7H12.25Z" fill="white"/>
</svg>
