<svg width="14" height="14" viewBox="0 0 14 14" fill="none" xmlns="http://www.w3.org/2000/svg">
<path d="M8.59375 4.70312L11.3594 8.89844C11.5234 9.10938 11.5234 9.39062 11.4062 9.625C11.2891 9.85938 11.0312 10 10.7734 10H3.20312C2.94531 10 2.6875 9.85938 2.57031 9.625C2.45312 9.36719 2.47656 9.08594 2.61719 8.875L4.14062 6.76562C4.39844 6.39062 5.03125 6.39062 5.3125 6.76562L5.6875 7.30469L7.39844 4.70312C7.67969 4.30469 8.33594 4.30469 8.59375 4.70312ZM3.22656 9.25H10.7266L7.98438 5.125L6.01562 8.17188C5.94531 8.26562 5.82812 8.33594 5.71094 8.33594C5.59375 8.35938 5.47656 8.28906 5.40625 8.17188L4.70312 7.21094L3.22656 9.25ZM11.4766 1.75C12.3203 1.75 12.9766 2.42969 12.9766 3.25V10.75C12.9766 11.5938 12.2969 12.25 11.4766 12.25H2.47656C1.65625 12.25 0.976562 11.5938 0.976562 10.75V3.25C0.976562 2.42969 1.65625 1.75 2.47656 1.75H11.4766ZM12.25 10.75V3.25C12.25 2.85156 11.8984 2.5 11.5 2.5H2.5C2.07812 2.5 1.75 2.85156 1.75 3.25V10.75C1.75 11.1719 2.07812 11.5 2.5 11.5H11.5C11.8984 11.5 12.25 11.1719 12.25 10.75ZM4.375 5.5C3.74219 5.5 3.25 5.00781 3.25 4.375C3.25 3.76562 3.74219 3.25 4.375 3.25C4.98438 3.25 5.5 3.76562 5.5 4.375C5.5 5.00781 4.98438 5.5 4.375 5.5ZM4.375 4C4.16406 4 4 4.1875 4 4.375C4 4.58594 4.16406 4.75 4.375 4.75C4.5625 4.75 4.72656 4.58594 4.72656 4.375C4.72656 4.1875 4.5625 4 4.375 4Z" fill="white"/>
</svg>
