<svg width="14" height="14" viewBox="0 0 14 14" fill="none" xmlns="http://www.w3.org/2000/svg">
<path d="M12.25 7C12.25 7.21094 12.0625 7.375 11.8516 7.375H3.01562L6.29688 10.8906C6.4375 11.0312 6.4375 11.2656 6.27344 11.4062C6.20312 11.4766 6.10938 11.5 6.01562 11.5C5.89844 11.5 5.80469 11.4766 5.73438 11.3828L1.84375 7.25781C1.70312 7.11719 1.70312 6.90625 1.84375 6.76562L5.73438 2.64062C5.875 2.47656 6.10938 2.47656 6.27344 2.61719C6.4375 2.75781 6.4375 2.99219 6.29688 3.13281L3.01562 6.625H11.8516C12.0625 6.625 12.25 6.8125 12.25 7Z" fill="white"/>
</svg>
