<svg width="30" height="30" viewBox="0 0 30 30" fill="none" xmlns="http://www.w3.org/2000/svg">
<path d="M3.75 9.75C3.32812 9.75 3 9.32812 3 9C3 8.625 3.32812 8.25 3.75 8.25H19.5L19.4531 4.125C19.4531 3.65625 19.7344 3.23438 20.1562 3.09375C20.5781 2.90625 21.0469 3 21.375 3.28125L26.625 8.15625C26.8594 8.39062 27 8.625 27 9C27 9.32812 26.8594 9.60938 26.625 9.84375L21.375 14.7188C21.0469 15.0469 20.5781 15.0938 20.1562 14.9062C19.7344 14.7656 19.4531 14.3438 19.4531 13.875L19.5 9.75H3.75ZM21 5.01562V13.0312L25.3125 9L21 5.01562ZM26.25 20.25C26.625 20.25 27 20.6719 27 21C27 21.375 26.625 21.75 26.25 21.75H10.5V25.875C10.5 26.3438 10.2188 26.7656 9.79688 26.9062C9.375 27.0469 8.90625 27 8.57812 26.6719L3.32812 21.7969C3.09375 21.5625 3 21.2344 3 21C3 20.7188 3.09375 20.4375 3.32812 20.2031L8.57812 15.3281C8.90625 15 9.375 14.9531 9.79688 15.0938C10.2188 15.2812 10.5 15.7031 10.5 16.125V20.25H26.25ZM9 25.0312V17.0156L4.64062 21L9 25.0312Z" fill="#AF3C1C"/>
</svg>
