<svg width="14" height="14" viewBox="0 0 14 14" fill="none" xmlns="http://www.w3.org/2000/svg">
<path d="M9.25 7C9.25 8.24219 8.24219 9.25 7 9.25C5.73438 9.25 4.75 8.24219 4.75 7C4.75 5.75781 5.73438 4.75 7 4.75C8.24219 4.75 9.25 5.75781 9.25 7ZM7 5.5C6.15625 5.5 5.5 6.17969 5.5 7C5.5 7.84375 6.15625 8.5 7 8.5C7.82031 8.5 8.5 7.84375 8.5 7C8.5 6.17969 7.82031 5.5 7 5.5ZM0.25 4C0.25 3.17969 0.90625 2.5 1.75 2.5H12.25C13.0703 2.5 13.75 3.17969 13.75 4V10C13.75 10.8438 13.0703 11.5 12.25 11.5H1.75C0.90625 11.5 0.25 10.8438 0.25 10V4ZM13 4.75V4C13 3.60156 12.6484 3.25 12.25 3.25H11.5C11.5 4.09375 12.1562 4.75 13 4.75ZM10.75 3.25H3.25C3.25 4.49219 2.24219 5.5 1 5.5V8.5C2.24219 8.5 3.25 9.50781 3.25 10.75H10.75C10.75 9.50781 11.7344 8.5 13 8.5V5.5C11.7344 5.5 10.75 4.49219 10.75 3.25ZM1.75 10.75H2.5C2.5 9.92969 1.82031 9.25 1 9.25V10C1 10.4219 1.32812 10.75 1.75 10.75ZM13 9.25C12.1562 9.25 11.5 9.92969 11.5 10.75H12.25C12.6484 10.75 13 10.4219 13 10V9.25ZM1 4V4.75C1.82031 4.75 2.5 4.09375 2.5 3.25H1.75C1.32812 3.25 1 3.60156 1 4Z" fill="white"/>
</svg>
