<svg width="16" height="14" viewBox="0 0 16 14" fill="none" xmlns="http://www.w3.org/2000/svg">
<path d="M3.21875 10.75C4.17969 10.75 5 11.5938 5 12.625C5 12.8359 4.8125 13 4.625 13C4.41406 13 4.25 12.8359 4.25 12.625C4.25 12.0156 3.78125 11.5 3.21875 11.5H2.28125C1.69531 11.5 1.25 12.0156 1.25 12.625C1.25 12.8359 1.0625 13 0.875 13C0.664062 13 0.5 12.8359 0.5 12.625C0.5 11.5938 1.29688 10.75 2.28125 10.75H3.21875ZM13.7188 10.75C14.6797 10.75 15.5 11.5938 15.5 12.625C15.5 12.8359 15.3125 13 15.125 13C14.9141 13 14.75 12.8359 14.75 12.625C14.75 12.0156 14.2812 11.5 13.7188 11.5H12.7812C12.1953 11.5 11.75 12.0156 11.75 12.625C11.75 12.8359 11.5625 13 11.375 13C11.1641 13 11 12.8359 11 12.625C11 11.5938 11.7969 10.75 12.7812 10.75H13.7188ZM8.46875 10.75C9.42969 10.75 10.25 11.5938 10.25 12.625C10.25 12.8359 10.0625 13 9.875 13C9.66406 13 9.5 12.8359 9.5 12.625C9.5 12.0156 9.03125 11.5 8.46875 11.5H7.53125C6.94531 11.5 6.5 12.0156 6.5 12.625C6.5 12.8359 6.3125 13 6.125 13C5.91406 13 5.75 12.8359 5.75 12.625C5.75 11.5938 6.54688 10.75 7.53125 10.75H8.46875ZM6.5 8.5C6.5 7.67969 7.15625 7 8 7C8.82031 7 9.47656 7.67969 9.47656 8.5C9.47656 9.34375 8.82031 10 7.97656 10C7.15625 10 6.5 9.34375 6.5 8.5ZM8.75 8.5C8.75 8.10156 8.39844 7.75 8 7.75C7.57812 7.75 7.25 8.10156 7.25 8.5C7.25 8.92188 7.57812 9.25 8 9.25C8.39844 9.25 8.75 8.92188 8.75 8.5ZM13.25 7C14.0703 7 14.7266 7.67969 14.7266 8.5C14.7266 9.34375 14.0703 10 13.25 10C12.4062 10 11.75 9.34375 11.75 8.5C11.75 7.67969 12.4062 7 13.25 7ZM13.25 9.25C13.6484 9.25 14 8.92188 14 8.5C14 8.10156 13.6484 7.75 13.25 7.75C12.8281 7.75 12.5 8.10156 12.5 8.5C12.5 8.92188 12.8281 9.25 13.25 9.25ZM2.75 10C1.90625 10 1.25 9.34375 1.25 8.5C1.25 7.67969 1.90625 7 2.75 7C3.57031 7 4.22656 7.65625 4.22656 8.5C4.22656 9.32031 3.57031 10 2.75 10ZM2.75 7.75C2.32812 7.75 2 8.10156 2 8.5C2 8.92188 2.32812 9.25 2.75 9.25C3.14844 9.25 3.5 8.92188 3.5 8.5C3.5 8.10156 3.14844 7.75 2.75 7.75ZM1.625 6.625C1.41406 6.625 1.25 6.46094 1.25 6.25V2.125C1.25 1.51562 1.74219 1 2.375 1.02344H13.625C14.2344 1.02344 14.75 1.51562 14.75 2.125V6.25C14.75 6.46094 14.5625 6.625 14.375 6.625C14.1641 6.625 14 6.46094 14 6.25V2.125C14 1.9375 13.8125 1.75 13.625 1.75H2.375C2.16406 1.75 2 1.9375 2 2.125V6.25C2 6.46094 1.8125 6.625 1.625 6.625Z" fill="white"/>
</svg>
