<svg width="14" height="14" viewBox="0 0 14 14" fill="none" xmlns="http://www.w3.org/2000/svg">
<path d="M9.85938 1.39844C10.4453 0.789062 11.5 1.21094 11.5 2.05469V11.2188C11.5 12.0625 10.4453 12.4844 9.85938 11.875L9.32031 11.2891C8.28906 10.2109 6.95312 9.53125 5.5 9.34375V11.6875C5.5 12.4141 4.89062 13 4.1875 13H3.8125C3.08594 13 2.5 12.4141 2.5 11.6875V9.25C1.65625 9.25 1 8.59375 1 7.75V5.5C1 4.67969 1.65625 4 2.5 4H4.35156L5.03125 3.97656C6.67188 3.88281 8.19531 3.17969 9.32031 1.98438L9.85938 1.39844ZM10.75 2.05469C10.75 1.86719 10.5391 1.79688 10.4219 1.91406L9.85938 2.5C8.875 3.53125 7.60938 4.25781 6.25 4.5625V8.71094C7.60938 9.01562 8.875 9.71875 9.85938 10.7734L10.4219 11.3594C10.5391 11.4766 10.75 11.3828 10.75 11.2188V2.05469ZM5.5 8.59375V4.67969C5.35938 4.70312 5.21875 4.70312 5.07812 4.72656L4.375 4.75H2.5C2.07812 4.75 1.75 5.10156 1.75 5.5V7.75C1.75 8.17188 2.07812 8.5 2.5 8.5H4.375L5.07812 8.54688C5.21875 8.54688 5.35938 8.57031 5.5 8.59375ZM3.25 9.25V11.6875C3.25 12.0156 3.48438 12.25 3.8125 12.25H4.1875C4.49219 12.25 4.75 12.0156 4.75 11.6875V9.27344L4.35156 9.25H3.25ZM12.625 5.5C12.8125 5.5 13 5.6875 13 5.875V7.375C13 7.58594 12.8125 7.75 12.625 7.75C12.4141 7.75 12.25 7.58594 12.25 7.375V5.875C12.25 5.6875 12.4141 5.5 12.625 5.5Z" fill="white"/>
</svg>
