<svg width="14" height="14" viewBox="0 0 14 14" fill="none" xmlns="http://www.w3.org/2000/svg">
<path d="M4.75 2.5C4.75 1.67969 5.40625 1 6.25 1H12.25C13.0703 1 13.75 1.67969 13.75 2.5V11.5C13.75 12.3438 13.0703 13 12.25 13H6.25C5.40625 13 4.75 12.3438 4.75 11.5V2.5ZM5.5 2.5V11.5C5.5 11.9219 5.82812 12.25 6.25 12.25H12.25C12.6484 12.25 13 11.9219 13 11.5V2.5C13 2.10156 12.6484 1.75 12.25 1.75H6.25C5.82812 1.75 5.5 2.10156 5.5 2.5ZM2.5 2.5C2.5 2.3125 2.66406 2.125 2.875 2.125C3.0625 2.125 3.25 2.3125 3.25 2.5V11.5C3.25 11.7109 3.0625 11.875 2.875 11.875C2.66406 11.875 2.5 11.7109 2.5 11.5V2.5ZM0.25 3.625C0.25 3.4375 0.414062 3.25 0.625 3.25C0.8125 3.25 1 3.4375 1 3.625V10.375C1 10.5859 0.8125 10.75 0.625 10.75C0.414062 10.75 0.25 10.5859 0.25 10.375V3.625Z" fill="white"/>
</svg>
