<svg width="16" height="16" viewBox="0 0 16 16" fill="none" xmlns="http://www.w3.org/2000/svg">
<path d="M5.375 8C5.375 6.55078 6.52344 5.375 8 5.375C9.44922 5.375 10.625 6.55078 10.625 8C10.625 9.44922 9.44922 10.625 8 10.625C6.52344 10.625 5.375 9.44922 5.375 8ZM8 6.6875C7.26172 6.6875 6.6875 7.28906 6.6875 8C6.6875 8.73828 7.26172 9.3125 8 9.3125C8.71094 9.3125 9.3125 8.73828 9.3125 8C9.3125 7.28906 8.71094 6.6875 8 6.6875ZM9.01172 1C9.61328 1 10.1328 1.4375 10.2695 2.01172L10.4883 2.91406C10.7344 3.02344 10.9531 3.16016 11.1445 3.29688L12.0469 3.02344C12.6211 2.85938 13.25 3.10547 13.5508 3.625L14.5625 5.40234C14.8633 5.92188 14.7539 6.57812 14.3164 6.98828L13.6602 7.61719C13.6602 7.75391 13.6875 7.89062 13.6875 8C13.6875 8.13672 13.6602 8.27344 13.6602 8.38281L14.3164 9.03906C14.7539 9.44922 14.8633 10.1055 14.5625 10.625L13.5508 12.4023C13.25 12.9219 12.6211 13.168 12.0469 13.0039L11.1445 12.7305C10.9531 12.8672 10.7344 13.0039 10.4883 13.1133L10.2695 14.0156C10.1328 14.5898 9.61328 15 9.01172 15H6.96094C6.35938 15 5.83984 14.5898 5.70312 14.0156L5.48438 13.1133C5.23828 13.0039 5.01953 12.8672 4.82812 12.7305L3.92578 13.0039C3.35156 13.168 2.72266 12.9219 2.42188 12.4023L1.41016 10.625C1.10938 10.1055 1.21875 9.44922 1.65625 9.03906L2.3125 8.38281C2.3125 8.27344 2.3125 8.13672 2.3125 8C2.3125 7.89062 2.3125 7.75391 2.3125 7.61719L1.65625 6.98828C1.21875 6.57812 1.10938 5.92188 1.41016 5.40234L2.42188 3.625C2.72266 3.10547 3.35156 2.85938 3.92578 3.02344L4.82812 3.29688C5.01953 3.16016 5.23828 3.02344 5.48438 2.91406L5.70312 2.01172C5.83984 1.4375 6.35938 1 6.96094 1H9.01172ZM6.60547 3.84375L6.30469 3.98047C5.94922 4.11719 5.62109 4.30859 5.34766 4.52734L5.07422 4.74609L3.57031 4.28125L2.55859 6.05859L3.67969 7.125L3.65234 7.45312C3.625 7.64453 3.625 7.83594 3.625 8C3.625 8.19141 3.625 8.38281 3.65234 8.57422L3.67969 8.90234L2.55859 9.96875L3.57031 11.7461L5.07422 11.2812L5.34766 11.5C5.62109 11.7188 5.94922 11.9102 6.30469 12.0469L6.60547 12.1836L6.96094 13.6875H9.01172L9.36719 12.1836L9.66797 12.0469C10.0234 11.9102 10.3516 11.7188 10.625 11.5L10.8984 11.2812L12.4023 11.7461L13.4141 9.96875L12.293 8.90234L12.3203 8.57422C12.3477 8.38281 12.375 8.19141 12.375 8C12.375 7.83594 12.3477 7.64453 12.3203 7.45312L12.293 7.125L13.4141 6.05859L12.4023 4.28125L10.8984 4.74609L10.625 4.52734C10.3516 4.30859 10.0234 4.11719 9.66797 3.98047L9.36719 3.84375L9.01172 2.3125H6.96094L6.60547 3.84375Z" fill="#44546F"/>
</svg>
