<svg width="30" height="30" viewBox="0 0 30 30" fill="none" xmlns="http://www.w3.org/2000/svg">
<path d="M24.5625 3.60938L26.3906 5.4375C27.1406 6.1875 27.1406 7.35938 26.3906 8.10938L8.0625 26.4375C7.3125 27.1875 6.14062 27.1875 5.39062 26.4375L3.5625 24.6094C2.8125 23.8594 2.8125 22.6875 3.5625 21.9375L21.8906 3.60938C22.6406 2.85938 23.8125 2.85938 24.5625 3.60938ZM22.9688 4.64062L17.2969 10.3125L19.6875 12.7031L25.3594 7.03125C25.5 6.89062 25.5 6.65625 25.3594 6.51562L23.4844 4.64062C23.3438 4.5 23.1094 4.5 22.9688 4.64062ZM4.59375 23.5312L6.46875 25.4062C6.60938 25.5469 6.84375 25.5469 6.98438 25.4062L18.6562 13.7344L16.2656 11.3438L4.59375 23.0156C4.45312 23.1562 4.45312 23.3906 4.59375 23.5312ZM7.5 9H9.75C10.125 9 10.5 9.375 10.5 9.75C10.5 10.1719 10.125 10.5 9.75 10.5H7.5V12.75C7.5 13.1719 7.125 13.5 6.75 13.5C6.32812 13.5 6 13.1719 6 12.75V10.5H3.75C3.32812 10.5 3 10.1719 3 9.75C3 9.375 3.32812 9 3.75 9H6V6.75C6 6.375 6.32812 6 6.75 6C7.125 6 7.5 6.375 7.5 6.75V9ZM23.25 18C23.625 18 24 18.375 24 18.75V21H26.25C26.625 21 27 21.375 27 21.75C27 22.1719 26.625 22.5 26.25 22.5H24V24.75C24 25.1719 23.625 25.5 23.25 25.5C22.8281 25.5 22.5 25.1719 22.5 24.75V22.5H20.25C19.8281 22.5 19.5 22.1719 19.5 21.75C19.5 21.375 19.8281 21 20.25 21H22.5V18.75C22.5 18.375 22.8281 18 23.25 18ZM13.3125 4.6875H14.25C14.5312 4.6875 14.8125 4.96875 14.8125 5.25C14.8125 5.57812 14.5312 5.85938 14.25 5.85938H13.3125V6.75C13.3125 7.07812 13.0312 7.35938 12.75 7.35938C12.4219 7.35938 12.1406 7.07812 12.1406 6.75V5.85938H11.25C10.9219 5.85938 10.6406 5.57812 10.6406 5.25C10.6406 4.96875 10.9219 4.6875 11.25 4.6875H12.1406V3.75C12.1406 3.46875 12.4219 3.1875 12.75 3.1875C13.0312 3.1875 13.3125 3.46875 13.3125 3.75V4.6875Z" fill="#AF3C1C"/>
</svg>
