<svg width="14" height="14" viewBox="0 0 14 14" fill="none" xmlns="http://www.w3.org/2000/svg">
<path d="M0.875 2.15625C0.875 1.80078 1.14844 1.5 1.53125 1.5H12.4688C12.8242 1.5 13.125 1.80078 13.125 2.15625C13.125 2.53906 12.8242 2.8125 12.4688 2.8125H1.53125C1.14844 2.8125 0.875 2.53906 0.875 2.15625ZM2.625 6.53125C2.625 6.17578 2.89844 5.875 3.28125 5.875H10.7188C11.0742 5.875 11.375 6.17578 11.375 6.53125C11.375 6.91406 11.0742 7.1875 10.7188 7.1875H3.28125C2.89844 7.1875 2.625 6.91406 2.625 6.53125ZM8.09375 11.5625H5.90625C5.52344 11.5625 5.25 11.2891 5.25 10.9062C5.25 10.5508 5.52344 10.25 5.90625 10.25H8.09375C8.44922 10.25 8.75 10.5508 8.75 10.9062C8.75 11.2891 8.44922 11.5625 8.09375 11.5625Z" fill="#44546F"/>
</svg>
