<svg width="16" height="16" viewBox="0 0 16 16" fill="none" xmlns="http://www.w3.org/2000/svg">
<path d="M7.5625 12.375C8.02734 12.375 8.4375 12.7852 8.4375 13.25C8.4375 13.7422 8.02734 14.1523 7.5625 14.1523C7.07031 14.1523 6.6875 13.7422 6.6875 13.25C6.6875 12.7852 7.07031 12.375 7.5625 12.375ZM9.39453 1.875C11.0352 1.875 12.375 3.21484 12.375 4.85547C12.375 5.97656 11.7461 6.98828 10.7617 7.50781L8.79297 8.54688C8.4375 8.73828 8.21875 9.09375 8.21875 9.50391V9.96875C8.21875 10.3516 7.91797 10.6523 7.5625 10.6523C7.17969 10.6523 6.90625 10.3516 6.90625 9.96875V9.50391C6.90625 8.60156 7.37109 7.78125 8.19141 7.37109L10.1602 6.33203C10.707 6.05859 11.0625 5.48438 11.0625 4.85547C11.0625 3.95312 10.2969 3.1875 9.39453 3.1875H6.46875C5.62109 3.1875 4.9375 3.89844 4.9375 4.71875V5.15625C4.9375 5.53906 4.63672 5.8125 4.28125 5.8125C3.89844 5.8125 3.625 5.53906 3.625 5.15625V4.71875C3.625 3.16016 4.88281 1.875 6.46875 1.875H9.39453Z" fill="#44546F"/>
</svg>
