<svg width="14" height="14" viewBox="0 0 14 14" fill="none" xmlns="http://www.w3.org/2000/svg">
<path d="M13.6094 6.71875C13.7734 6.85938 13.7734 7.09375 13.6328 7.25781C13.5156 7.42188 13.2812 7.42188 13.1172 7.28125L12.25 6.50781V11.125C12.25 12.1797 11.4062 13 10.375 13H3.625C2.57031 13 1.75 12.1797 1.75 11.125V6.50781L0.859375 7.28125C0.695312 7.42188 0.460938 7.42188 0.34375 7.25781C0.203125 7.09375 0.203125 6.85938 0.367188 6.71875L6.74219 1.11719C6.88281 0.976562 7.09375 0.976562 7.23438 1.11719L13.6094 6.71875ZM3.625 12.25H5.125V8.5C5.125 8.10156 5.45312 7.75 5.875 7.75H8.125C8.52344 7.75 8.875 8.10156 8.875 8.5V12.25H10.375C10.9844 12.25 11.5 11.7578 11.5 11.125V5.85156L7 1.89062L2.5 5.85156V11.125C2.5 11.7578 2.99219 12.25 3.625 12.25ZM5.875 12.25H8.125V8.5H5.875V12.25Z" fill="white"/>
</svg>
