<svg width="30" height="30" viewBox="0 0 30 30" fill="none" xmlns="http://www.w3.org/2000/svg">
<path d="M14.4375 17.8125L9.1875 12.5625C8.90625 12.2812 8.90625 11.7656 9.1875 11.4844C9.46875 11.2031 9.98438 11.2031 10.2656 11.4844L14.25 15.4688V3.75C14.25 3.375 14.5781 3 15 3C15.375 3 15.75 3.375 15.75 3.75V15.4688L19.6875 11.4844C19.9688 11.2031 20.4844 11.2031 20.7656 11.4844C21.0469 11.7656 21.0469 12.2812 20.7656 12.5625L15.5156 17.8125C15.375 17.9531 15.1875 18 15 18C14.7656 18 14.5781 17.9531 14.4375 17.8125ZM24.75 18C25.9688 18 27 19.0312 27 20.25V24.75C27 26.0156 25.9688 27 24.75 27H5.25C3.98438 27 3 26.0156 3 24.75V20.25C3 19.0312 3.98438 18 5.25 18H9C9.28125 18 9.51562 18.1875 9.65625 18.4219L10.9219 21H19.0312L20.2969 18.4219C20.4375 18.1875 20.6719 18 21 18H24.75ZM25.5 24.75V20.25C25.5 19.875 25.125 19.5 24.75 19.5H21.4219L20.1562 22.125C20.0156 22.3594 19.7812 22.5 19.5 22.5H10.4531C10.1719 22.5 9.9375 22.3594 9.79688 22.125L8.53125 19.5H5.25C4.82812 19.5 4.5 19.875 4.5 20.25V24.75C4.5 25.1719 4.82812 25.5 5.25 25.5H24.75C25.125 25.5 25.5 25.1719 25.5 24.75Z" fill="#AF3C1C"/>
</svg>
