<svg width="14" height="14" viewBox="0 0 14 14" fill="none" xmlns="http://www.w3.org/2000/svg">
<path d="M1.75 10.375C1.75 11.0078 2.24219 11.5 2.875 11.5H12.625C12.8125 11.5 13 11.6875 13 11.875C13 12.0859 12.8125 12.25 12.625 12.25H2.875C1.82031 12.25 1 11.4297 1 10.375V2.125C1 1.9375 1.16406 1.75 1.375 1.75C1.5625 1.75 1.75 1.9375 1.75 2.125V10.375ZM8.875 4H11.875C12.0625 4 12.25 4.1875 12.25 4.375V7.375C12.25 7.58594 12.0625 7.75 11.875 7.75C11.6641 7.75 11.5 7.58594 11.5 7.375V5.28906L8.75781 8.03125C8.61719 8.17188 8.35938 8.17188 8.21875 8.03125L6.22656 6.03906L3.88281 8.40625C3.74219 8.54688 3.48438 8.54688 3.34375 8.40625C3.20312 8.26562 3.20312 8.00781 3.34375 7.86719L5.96875 5.24219C6.10938 5.10156 6.36719 5.10156 6.50781 5.24219L8.5 7.23438L10.9609 4.75H8.875C8.66406 4.75 8.5 4.58594 8.5 4.375C8.5 4.1875 8.66406 4 8.875 4Z" fill="white"/>
</svg>
