<svg width="14" height="14" viewBox="0 0 14 14" fill="none" xmlns="http://www.w3.org/2000/svg">
<path d="M4.75 1C4.9375 1 5.125 1.1875 5.125 1.375V3.625H4.375V1.375C4.375 1.1875 4.53906 1 4.75 1ZM9.25 1C9.4375 1 9.625 1.1875 9.625 1.375V3.625H8.875V1.375C8.875 1.1875 9.03906 1 9.25 1ZM11.125 4.375C11.3125 4.375 11.5 4.5625 11.5 4.75C11.5 4.96094 11.3125 5.125 11.125 5.125H10.75V6.625C10.75 8.57031 9.25 10.1875 7.375 10.375V12.625C7.375 12.8359 7.1875 13 7 13C6.78906 13 6.625 12.8359 6.625 12.625V10.375C4.72656 10.1875 3.25 8.57031 3.25 6.625V5.125H2.875C2.66406 5.125 2.5 4.96094 2.5 4.75C2.5 4.5625 2.66406 4.375 2.875 4.375H11.125ZM7 9.625C8.64062 9.625 10 8.28906 10 6.625V5.125H4V6.625C4 8.28906 5.33594 9.625 7 9.625Z" fill="white"/>
</svg>
