<svg width="16" height="14" viewBox="0 0 16 14" fill="none" xmlns="http://www.w3.org/2000/svg">
<path d="M7.97656 8.5C6.64062 8.5 5.53906 7.42188 5.5625 6.0625C5.5625 4.72656 6.64062 3.625 7.97656 3.625C9.3125 3.625 10.4141 4.72656 10.4141 6.0625C10.4141 7.42188 9.33594 8.5 7.97656 8.5ZM7.97656 4.375C7.0625 4.375 6.28906 5.14844 6.28906 6.0625C6.28906 7 7.0625 7.75 7.97656 7.75C8.91406 7.75 9.66406 7 9.66406 6.0625C9.66406 5.14844 8.91406 4.375 7.97656 4.375ZM9.14844 9.25C11 9.25 12.5 10.6562 12.5 12.3906C12.5 12.7422 12.1953 13 11.8203 13H4.15625C3.78125 13 3.5 12.7422 3.5 12.3906C3.5 10.6562 4.97656 9.25 6.82812 9.25H9.14844ZM4.25 12.25H11.7266C11.6562 11.0078 10.5312 10 9.14844 10H6.80469C5.44531 10 4.32031 11.0078 4.25 12.25ZM12.5 4.75C11.4453 4.75 10.625 3.92969 10.625 2.875C10.625 1.84375 11.4453 1 12.5 1C13.5312 1 14.375 1.84375 14.375 2.875C14.375 3.92969 13.5312 4.75 12.5 4.75ZM12.5 1.75C11.8672 1.75 11.375 2.26562 11.375 2.875C11.375 3.50781 11.8672 4 12.5 4C13.1094 4 13.625 3.50781 13.625 2.875C13.625 2.26562 13.1094 1.75 12.5 1.75ZM3.5 4.75C2.44531 4.75 1.625 3.92969 1.625 2.875C1.625 1.84375 2.44531 1 3.5 1C4.53125 1 5.375 1.84375 5.375 2.875C5.375 3.92969 4.53125 4.75 3.5 4.75ZM3.5 1.75C2.86719 1.75 2.375 2.26562 2.375 2.875C2.375 3.50781 2.86719 4 3.5 4C4.10938 4 4.625 3.50781 4.625 2.875C4.625 2.26562 4.10938 1.75 3.5 1.75ZM13.6484 5.5C14.6562 5.5 15.5 6.39062 15.5 7.44531V7.75C15.5 7.96094 15.3125 8.125 15.125 8.125C14.9141 8.125 14.75 7.96094 14.75 7.75V7.44531C14.75 6.78906 14.2344 6.25 13.6484 6.25H12.125C11.9609 6.25 11.8203 6.29688 11.6797 6.36719C11.4922 6.46094 11.2578 6.36719 11.1641 6.17969C11.0938 5.99219 11.1641 5.78125 11.3516 5.6875C11.5859 5.57031 11.8438 5.5 12.125 5.5H13.6484ZM4.29688 6.36719C4.15625 6.29688 4.01562 6.25 3.875 6.25H2.32812C1.74219 6.25 1.25 6.78906 1.25 7.44531V7.75C1.25 7.96094 1.0625 8.125 0.875 8.125C0.664062 8.125 0.5 7.96094 0.5 7.75V7.44531C0.5 6.39062 1.32031 5.5 2.32812 5.5H3.875C4.13281 5.5 4.39062 5.57031 4.625 5.6875C4.8125 5.78125 4.88281 5.99219 4.8125 6.17969C4.71875 6.36719 4.48438 6.46094 4.29688 6.36719Z" fill="white"/>
</svg>
