<svg width="14" height="14" viewBox="0 0 14 14" fill="none" xmlns="http://www.w3.org/2000/svg">
<path d="M3.25 5.3125C2.92188 5.3125 2.6875 5.07812 2.6875 4.75C2.6875 4.44531 2.92188 4.1875 3.25 4.1875C3.55469 4.1875 3.8125 4.44531 3.8125 4.75C3.8125 5.07812 3.55469 5.3125 3.25 5.3125ZM4.75 4.75C4.75 4.5625 4.91406 4.375 5.125 4.375H11.125C11.3125 4.375 11.5 4.5625 11.5 4.75C11.5 4.96094 11.3125 5.125 11.125 5.125H5.125C4.91406 5.125 4.75 4.96094 4.75 4.75ZM4.75 7C4.75 6.8125 4.91406 6.625 5.125 6.625H11.125C11.3125 6.625 11.5 6.8125 11.5 7C11.5 7.21094 11.3125 7.375 11.125 7.375H5.125C4.91406 7.375 4.75 7.21094 4.75 7ZM4.75 9.25C4.75 9.0625 4.91406 8.875 5.125 8.875H11.125C11.3125 8.875 11.5 9.0625 11.5 9.25C11.5 9.46094 11.3125 9.625 11.125 9.625H5.125C4.91406 9.625 4.75 9.46094 4.75 9.25ZM3.25 6.4375C3.55469 6.4375 3.8125 6.69531 3.8125 7C3.8125 7.32812 3.55469 7.5625 3.25 7.5625C2.92188 7.5625 2.6875 7.32812 2.6875 7C2.6875 6.69531 2.92188 6.4375 3.25 6.4375ZM3.25 9.8125C2.92188 9.8125 2.6875 9.57812 2.6875 9.25C2.6875 8.94531 2.92188 8.6875 3.25 8.6875C3.55469 8.6875 3.8125 8.94531 3.8125 9.25C3.8125 9.57812 3.55469 9.8125 3.25 9.8125ZM0.25 3.25C0.25 2.42969 0.90625 1.75 1.75 1.75H12.25C13.0703 1.75 13.75 2.42969 13.75 3.25V10.75C13.75 11.5938 13.0703 12.25 12.25 12.25H1.75C0.90625 12.25 0.25 11.5938 0.25 10.75V3.25ZM1 3.25V10.75C1 11.1719 1.32812 11.5 1.75 11.5H12.25C12.6484 11.5 13 11.1719 13 10.75V3.25C13 2.85156 12.6484 2.5 12.25 2.5H1.75C1.32812 2.5 1 2.85156 1 3.25Z" fill="white"/>
</svg>
