<svg width="14" height="14" viewBox="0 0 14 14" fill="none" xmlns="http://www.w3.org/2000/svg">
<path d="M12.25 1C13.0703 1 13.75 1.67969 13.75 2.5V9.25C13.75 10.0938 13.0703 10.75 12.25 10.75H8.73438L9.17969 12.25H10.375C10.5625 12.25 10.75 12.4375 10.75 12.625C10.75 12.8359 10.5625 13 10.375 13H3.625C3.41406 13 3.25 12.8359 3.25 12.625C3.25 12.4375 3.41406 12.25 3.625 12.25H4.79688L5.24219 10.75H1.75C0.90625 10.75 0.25 10.0938 0.25 9.25V2.5C0.25 1.67969 0.90625 1 1.75 1H12.25ZM8.40625 12.25L7.9375 10.75H6.03906L5.57031 12.25H8.40625ZM13 9.25V2.5C13 2.10156 12.6484 1.75 12.25 1.75H1.75C1.32812 1.75 1 2.10156 1 2.5V9.25C1 9.67188 1.32812 10 1.75 10H12.25C12.6484 10 13 9.67188 13 9.25Z" fill="white"/>
</svg>
