<svg width="16" height="16" viewBox="0 0 16 16" fill="none" xmlns="http://www.w3.org/2000/svg">
<path d="M8 11.0625C8.71094 11.0625 9.3125 11.6641 9.3125 12.375C9.3125 13.1133 8.71094 13.6875 8 13.6875C7.26172 13.6875 6.6875 13.1133 6.6875 12.375C6.6875 11.6641 7.26172 11.0625 8 11.0625ZM8 6.6875C8.71094 6.6875 9.3125 7.28906 9.3125 8C9.3125 8.73828 8.71094 9.3125 8 9.3125C7.26172 9.3125 6.6875 8.73828 6.6875 8C6.6875 7.28906 7.26172 6.6875 8 6.6875ZM8 4.9375C7.26172 4.9375 6.6875 4.36328 6.6875 3.625C6.6875 2.91406 7.26172 2.3125 8 2.3125C8.71094 2.3125 9.3125 2.91406 9.3125 3.625C9.3125 4.36328 8.71094 4.9375 8 4.9375Z" fill="#44546F"/>
</svg>
