<svg width="9" height="10" viewBox="0 0 9 10" fill="none" xmlns="http://www.w3.org/2000/svg">
<path d="M5.59375 1.8125C5.32031 1.8125 5.125 1.61719 5.125 1.34375C5.125 1.08984 5.32031 0.875 5.59375 0.875H8.40625C8.66016 0.875 8.875 1.08984 8.875 1.34375V4.15625C8.875 4.42969 8.66016 4.625 8.40625 4.625C8.13281 4.625 7.9375 4.42969 7.9375 4.15625V2.47656L4.03125 6.36328C3.85547 6.55859 3.5625 6.55859 3.38672 6.36328C3.19141 6.1875 3.19141 5.89453 3.38672 5.69922L7.27344 1.8125H5.59375ZM0.125 2.59375C0.125 2.00781 0.613281 1.5 1.21875 1.5H3.40625C3.66016 1.5 3.875 1.71484 3.875 1.96875C3.875 2.24219 3.66016 2.4375 3.40625 2.4375H1.21875C1.12109 2.4375 1.0625 2.51562 1.0625 2.59375V8.53125C1.0625 8.62891 1.12109 8.6875 1.21875 8.6875H7.15625C7.23438 8.6875 7.3125 8.62891 7.3125 8.53125V6.34375C7.3125 6.08984 7.50781 5.875 7.78125 5.875C8.03516 5.875 8.25 6.08984 8.25 6.34375V8.53125C8.25 9.13672 7.74219 9.625 7.15625 9.625H1.21875C0.613281 9.625 0.125 9.13672 0.125 8.53125V2.59375Z" fill="#0860A8"/>
</svg>
