<svg width="14" height="15" viewBox="0 0 14 15" fill="none" xmlns="http://www.w3.org/2000/svg">
<path d="M9.1875 9.0625C9.1875 8.84375 9.37891 8.625 9.625 8.625H10.5C10.7188 8.625 10.9375 8.84375 10.9375 9.0625V9.9375C10.9375 10.1836 10.7188 10.375 10.5 10.375H9.625C9.37891 10.375 9.1875 10.1836 9.1875 9.9375V9.0625ZM9.1875 3.8125C9.1875 3.59375 9.37891 3.375 9.625 3.375H10.5C10.7188 3.375 10.9375 3.59375 10.9375 3.8125V4.6875C10.9375 4.93359 10.7188 5.125 10.5 5.125H9.625C9.37891 5.125 9.1875 4.93359 9.1875 4.6875V3.8125ZM9.625 7.75C9.37891 7.75 9.1875 7.55859 9.1875 7.3125V6.4375C9.1875 6.21875 9.37891 6 9.625 6H10.5C10.7188 6 10.9375 6.21875 10.9375 6.4375V7.3125C10.9375 7.55859 10.7188 7.75 10.5 7.75H9.625ZM12.25 0.75C13.207 0.75 14 1.54297 14 2.5V13C14 13.9844 13.207 14.75 12.25 14.75H7.875C6.89062 14.75 6.125 13.9844 6.125 13V2.5C6.125 1.54297 6.89062 0.75 7.875 0.75H12.25ZM12.25 2.0625H7.875C7.62891 2.0625 7.4375 2.28125 7.4375 2.5V13C7.4375 13.2461 7.62891 13.4375 7.875 13.4375H12.25C12.4688 13.4375 12.6875 13.2461 12.6875 13V2.5C12.6875 2.28125 12.4688 2.0625 12.25 2.0625ZM5.25 5.5625H1.96875C1.58594 5.5625 1.3125 5.86328 1.3125 6.21875V12.7812C1.3125 13.1641 1.58594 13.4375 1.96875 13.4375H5.27734C5.35938 13.957 5.57812 14.3945 5.90625 14.75H1.96875C0.875 14.75 0 13.875 0 12.7812V6.21875C0 5.15234 0.875 4.25 1.96875 4.25H5.25V5.5625ZM3.9375 9.5C4.15625 9.5 4.375 9.71875 4.375 9.9375V10.8125C4.375 11.0586 4.15625 11.25 3.9375 11.25H3.0625C2.81641 11.25 2.625 11.0586 2.625 10.8125V9.9375C2.625 9.71875 2.81641 9.5 3.0625 9.5H3.9375ZM3.9375 6.875C4.15625 6.875 4.375 7.09375 4.375 7.3125V8.1875C4.375 8.43359 4.15625 8.625 3.9375 8.625H3.0625C2.81641 8.625 2.625 8.43359 2.625 8.1875V7.3125C2.625 7.09375 2.81641 6.875 3.0625 6.875H3.9375Z" fill="#44546F"/>
</svg>
