<svg width="30" height="30" viewBox="0 0 30 30" fill="none" xmlns="http://www.w3.org/2000/svg">
<path d="M10.2656 9.5625C9.98438 9.84375 9.46875 9.84375 9.1875 9.5625C8.90625 9.28125 8.90625 8.76562 9.1875 8.48438L14.4375 3.23438C14.5781 3.09375 14.7656 3 15 3C15.1875 3 15.375 3.09375 15.5156 3.23438L20.7656 8.48438C21.0469 8.76562 21.0469 9.28125 20.7656 9.5625C20.4844 9.84375 19.9688 9.84375 19.6875 9.5625L15.75 5.57812V17.25C15.75 17.6719 15.375 18 15 18C14.5781 18 14.25 17.6719 14.25 17.25V5.57812L10.2656 9.5625ZM24.75 18C25.9688 18 27 19.0312 27 20.25V24.75C27 26.0156 25.9688 27 24.75 27H5.25C3.98438 27 3 26.0156 3 24.75V20.25C3 19.0312 3.98438 18 5.25 18H9C9.28125 18 9.51562 18.1875 9.65625 18.4219L10.9219 21H19.0312L20.2969 18.4219C20.4375 18.1875 20.6719 18 21 18H24.75ZM25.5 24.75V20.25C25.5 19.875 25.125 19.5 24.75 19.5H21.4219L20.1562 22.125C20.0156 22.3594 19.7812 22.5 19.5 22.5H10.4531C10.1719 22.5 9.9375 22.3594 9.79688 22.125L8.53125 19.5H5.25C4.82812 19.5 4.5 19.875 4.5 20.25V24.75C4.5 25.1719 4.82812 25.5 5.25 25.5H24.75C25.125 25.5 25.5 25.1719 25.5 24.75Z" fill="#AF3C1C"/>
</svg>
