<svg width="16" height="14" viewBox="0 0 16 14" fill="none" xmlns="http://www.w3.org/2000/svg">
<path d="M15.5 10.375C15.5 10.5859 15.3125 10.75 15.125 10.75H14C13.5078 10.75 13.0859 10.4453 12.9219 10H12.1953C12.1484 10.1172 12.1016 10.2109 12.0312 10.3047L11.8203 10.5859C11.4922 10.9844 10.9297 11.0781 10.4844 10.8672L9.99219 11.4531C9.57031 11.9453 8.82031 12.0391 8.30469 11.6172L8.16406 11.5C7.90625 11.7109 7.57812 11.8516 7.22656 11.875C7.15625 11.875 7.08594 11.875 7.03906 11.875C6.61719 11.875 6.21875 11.7344 5.89062 11.4766L3.99219 10H3.05469C2.89062 10.4453 2.46875 10.75 2 10.75H1.25C1.03906 10.75 0.875 10.5859 0.875 10.375C0.875 10.1875 1.03906 10 1.25 10H2C2.1875 10 2.375 9.83594 2.375 9.625V4.75H0.875C0.664062 4.75 0.5 4.58594 0.5 4.375C0.5 4.1875 0.664062 4 0.875 4H3.54688C4.34375 3.22656 5.35156 2.71094 6.42969 2.57031C6.64062 2.52344 6.82812 2.6875 6.85156 2.875C6.89844 3.08594 6.75781 3.27344 6.54688 3.29688C5.58594 3.4375 4.67188 3.92969 3.99219 4.63281L3.875 4.75H3.125V9.25H4.25L6.35938 10.8906C6.59375 11.0781 6.85156 11.1484 7.13281 11.125C7.41406 11.1016 7.67188 10.9609 7.83594 10.75L8.09375 10.4922L8.39844 10.7031L8.79688 11.0312C8.96094 11.1953 9.26562 11.1719 9.40625 10.9609L10.3438 9.8125L10.7656 10.1641C10.9062 10.2812 11.1172 10.2578 11.2344 10.0938L11.4453 9.83594C11.5625 9.69531 11.5391 9.48438 11.3984 9.36719L8.86719 7.30469C8.70312 7.16406 8.67969 6.92969 8.79688 6.76562C8.9375 6.625 9.17188 6.57812 9.33594 6.71875L11.8672 8.78125C12.0312 8.92188 12.125 9.08594 12.1953 9.25H12.875V4.75H12.1016L11.9844 4.65625C11.1406 3.76562 9.96875 3.25 8.82031 3.25H8.63281C8.53906 3.25 8.46875 3.29688 8.39844 3.34375L6.21875 5.40625C5.98438 5.61719 6.00781 5.96875 6.19531 6.15625C6.24219 6.20312 6.38281 6.32031 6.57031 6.32031C6.6875 6.32031 6.80469 6.27344 6.89844 6.17969L6.92188 6.20312C7.10938 5.99219 7.57812 5.54688 8.70312 4.51562C8.84375 4.375 9.07812 4.39844 9.21875 4.53906C9.35938 4.70312 9.35938 4.9375 9.19531 5.07812L7.41406 6.74219C7.17969 6.95312 6.89844 7.07031 6.59375 7.07031C6.57031 7.07031 6.54688 7.07031 6.52344 7.07031C6.125 7.04688 5.79688 6.83594 5.63281 6.64844C5.16406 6.13281 5.1875 5.38281 5.67969 4.89062V4.86719L7.88281 2.80469C8.09375 2.61719 8.35156 2.5 8.63281 2.5H8.82031C10.1328 2.5 11.4219 3.0625 12.4062 4H15.125C15.3125 4 15.5 4.1875 15.5 4.375C15.5 4.58594 15.3125 4.75 15.125 4.75H13.625V9.625C13.625 9.83594 13.7891 10.0234 13.9766 10.0234L15.125 10C15.3125 10 15.5 10.1875 15.5 10.375Z" fill="white"/>
</svg>
