<svg width="16" height="16" viewBox="0 0 16 16" fill="none" xmlns="http://www.w3.org/2000/svg">
<path d="M13.6875 8C13.6875 8.38281 13.3867 8.65625 13.0312 8.65625H8.65625V13.0312C8.65625 13.4141 8.35547 13.7148 8 13.7148C7.61719 13.7148 7.34375 13.4141 7.34375 13.0312V8.65625H2.96875C2.58594 8.65625 2.3125 8.38281 2.3125 8.02734C2.3125 7.64453 2.58594 7.34375 2.96875 7.34375H7.34375V2.96875C7.34375 2.61328 7.61719 2.33984 8 2.33984C8.35547 2.33984 8.65625 2.61328 8.65625 2.96875V7.34375H13.0312C13.3867 7.34375 13.6875 7.64453 13.6875 8Z" fill="#44546F"/>
</svg>
