<svg width="13" height="14" viewBox="0 0 13 14" fill="none" xmlns="http://www.w3.org/2000/svg">
<path d="M12.1875 6.75C12.1875 7.13281 11.8867 7.40625 11.5312 7.40625H7.15625V11.7812C7.15625 12.1641 6.85547 12.4648 6.5 12.4648C6.11719 12.4648 5.84375 12.1641 5.84375 11.7812V7.40625H1.46875C1.08594 7.40625 0.8125 7.13281 0.8125 6.77734C0.8125 6.39453 1.08594 6.09375 1.46875 6.09375H5.84375V1.71875C5.84375 1.36328 6.11719 1.08984 6.5 1.08984C6.85547 1.08984 7.15625 1.36328 7.15625 1.71875V6.09375H11.5312C11.8867 6.09375 12.1875 6.39453 12.1875 6.75Z" fill="white"/>
</svg>
