<svg width="14" height="14" viewBox="0 0 14 14" fill="none" xmlns="http://www.w3.org/2000/svg">
<path d="M7.75 6.625C7.53906 6.625 7.375 6.46094 7.375 6.25V1.375C7.375 1.1875 7.51562 1.02344 7.70312 1.02344L7.75 1C10.6328 1 13 3.36719 13 6.25L12.9766 6.29688C12.9766 6.48438 12.8125 6.625 12.625 6.625H7.75ZM8.125 1.77344V5.875H12.2266C12.0391 3.69531 10.3047 1.96094 8.125 1.77344ZM6.25 2.17188V7.75L9.90625 11.4297C10.0703 11.5938 10.0469 11.8516 9.88281 11.9688C8.94531 12.625 7.82031 13 6.625 13C3.50781 13 1 10.4922 1 7.375C1 4.53906 3.10938 2.19531 5.82812 1.82031C6.0625 1.77344 6.25 1.96094 6.25 2.17188ZM5.71094 8.28906C5.57031 8.14844 5.5 7.96094 5.5 7.75V2.64062C3.34375 3.15625 1.75 5.07812 1.75 7.375C1.75 10.0703 3.92969 12.25 6.625 12.25C7.49219 12.25 8.3125 12.0156 9.03906 11.6172L5.71094 8.28906ZM11.9453 11.5C11.8047 11.6172 11.5938 11.6172 11.4531 11.4766L8.38281 8.40625C8.14844 8.17188 8.3125 7.75 8.64062 7.75H13.3281C13.5391 7.75 13.7266 7.9375 13.6797 8.14844C13.5156 9.46094 12.8828 10.6328 11.9453 11.5ZM12.8594 8.5H9.55469L11.7109 10.6797C12.2734 10.0703 12.6719 9.32031 12.8594 8.5Z" fill="white"/>
</svg>
