<svg width="14" height="14" viewBox="0 0 14 14" fill="none" xmlns="http://www.w3.org/2000/svg">
<path d="M6.41406 1.1875C6.78906 1.04688 7.21094 1.04688 7.58594 1.1875L11.7109 2.94531C12.2266 3.17969 12.625 3.67188 12.625 4.28125C12.6016 6.625 11.6406 10.8672 7.60938 12.8125C7.21094 13 6.76562 13 6.36719 12.8125C2.33594 10.8672 1.375 6.625 1.375 4.28125C1.35156 3.67188 1.75 3.17969 2.26562 2.94531L6.41406 1.1875ZM7.28125 1.89062C7.09375 1.79688 6.88281 1.79688 6.69531 1.89062L2.54688 3.64844C2.28906 3.74219 2.10156 4 2.125 4.28125C2.125 6.48438 3.03906 10.375 6.69531 12.1328C6.88281 12.2266 7.09375 12.2266 7.28125 12.1328C10.9375 10.375 11.8516 6.48438 11.875 4.28125C11.875 4 11.6875 3.74219 11.4297 3.64844L7.28125 1.89062Z" fill="white"/>
</svg>
