<svg width="16" height="14" viewBox="0 0 16 14" fill="none" xmlns="http://www.w3.org/2000/svg">
<path d="M15.1914 1.0625C15.5742 1.0625 15.8477 1.36328 15.8477 1.71875C15.8477 2.07422 15.5469 2.375 15.1914 2.375H8.65625C8.27344 2.375 8 2.07422 8 1.71875C8 1.36328 8.27344 1.0625 8.65625 1.0625H15.1914ZM9.96875 11.5625C10.3242 11.5625 10.5977 11.8633 10.5977 12.2188C10.5977 12.6016 10.3242 12.875 9.96875 12.875H8.65625C8.27344 12.875 8 12.5742 8 12.2188C8 11.8359 8.27344 11.5625 8.65625 11.5625H9.96875ZM11.6914 8.0625C12.0742 8.0625 12.3477 8.36328 12.3477 8.71875C12.3477 9.10156 12.0469 9.375 11.6914 9.375H8.65625C8.27344 9.375 8 9.10156 8 8.71875C8 8.36328 8.27344 8.0625 8.65625 8.0625H11.6914ZM13.4414 4.5625C13.8242 4.5625 14.0977 4.86328 14.0977 5.21875C14.0977 5.60156 13.7969 5.875 13.4414 5.875H8.65625C8.27344 5.875 8 5.60156 8 5.21875C8 4.86328 8.27344 4.5625 8.65625 4.5625H13.4414ZM4.08984 0.84375L6.71484 3.6875C6.96094 3.96094 6.96094 4.37109 6.6875 4.61719C6.41406 4.86328 6.00391 4.83594 5.75781 4.58984L4.28125 2.97656V12.2188C4.28125 12.6016 3.98047 12.875 3.625 12.875C3.24219 12.875 2.96875 12.6016 2.96875 12.2188V2.97656L1.46484 4.58984C1.32812 4.72656 1.16406 4.78125 1 4.78125C0.835938 4.78125 0.671875 4.72656 0.535156 4.61719C0.261719 4.37109 0.261719 3.96094 0.507812 3.6875L3.13281 0.84375C3.37891 0.570312 3.84375 0.570312 4.08984 0.84375Z" fill="#44546F"/>
</svg>
