<svg width="14" height="14" viewBox="0 0 14 14" fill="none" xmlns="http://www.w3.org/2000/svg">
<path d="M11.5 3.25C12.3203 3.25 13 3.92969 13 4.75V10.75C13 11.5938 12.3203 12.25 11.5 12.25H2.5C1.65625 12.25 1 11.5938 1 10.75V3.25C1 2.42969 1.65625 1.75 2.5 1.75H5.24219C5.64062 1.75 6.01562 1.91406 6.29688 2.19531L7.375 3.25H11.5ZM12.25 10.75V4.75C12.25 4.35156 11.8984 4 11.5 4H7.04688L5.78125 2.73438C5.64062 2.59375 5.45312 2.5 5.24219 2.5H2.5C2.07812 2.5 1.75 2.85156 1.75 3.25V10.75C1.75 11.1719 2.07812 11.5 2.5 11.5H11.5C11.8984 11.5 12.25 11.1719 12.25 10.75ZM7 7.75C6.15625 7.75 5.5 7.09375 5.5 6.25C5.5 5.42969 6.15625 4.75 7 4.75C7.82031 4.75 8.5 5.42969 8.5 6.25C8.5 7.09375 7.82031 7.75 7 7.75ZM7 5.5C6.57812 5.5 6.25 5.85156 6.25 6.25C6.25 6.67188 6.57812 7 7 7C7.39844 7 7.75 6.67188 7.75 6.25C7.75 5.85156 7.39844 5.5 7 5.5ZM7.75 8.5C8.78125 8.5 9.625 9.34375 9.625 10.375C9.625 10.5859 9.4375 10.75 9.25 10.75C9.03906 10.75 8.875 10.5859 8.875 10.375C8.875 9.76562 8.35938 9.25 7.75 9.25H6.25C5.61719 9.25 5.125 9.76562 5.125 10.375C5.125 10.5859 4.9375 10.75 4.75 10.75C4.53906 10.75 4.375 10.5859 4.375 10.375C4.375 9.34375 5.19531 8.5 6.25 8.5H7.75Z" fill="white"/>
</svg>
