<svg width="14" height="14" viewBox="0 0 14 14" fill="none" xmlns="http://www.w3.org/2000/svg">
<path d="M1 3.25C1 2.42969 1.65625 1.75 2.5 1.75H11.5C12.3203 1.75 13 2.42969 13 3.25V10.75C13 11.5938 12.3203 12.25 11.5 12.25H2.5C1.65625 12.25 1 11.5938 1 10.75V3.25ZM1.75 3.25V4.75H12.25V3.25C12.25 2.85156 11.8984 2.5 11.5 2.5H2.5C2.07812 2.5 1.75 2.85156 1.75 3.25ZM1.75 5.5V8.125H6.625V5.5H1.75ZM7.375 5.5V8.125H12.25V5.5H7.375ZM6.625 8.875H1.75V10.75C1.75 11.1719 2.07812 11.5 2.5 11.5H6.625V8.875ZM11.5 11.5C11.8984 11.5 12.25 11.1719 12.25 10.75V8.875H7.375V11.5H11.5Z" fill="white"/>
</svg>
