<svg width="13" height="15" viewBox="0 0 13 15" fill="none" xmlns="http://www.w3.org/2000/svg">
<path d="M11.9688 9.5C12.3242 9.5 12.625 9.80078 12.625 10.1562V12.125C12.625 13.6016 11.4492 14.75 10 14.75H3C1.52344 14.75 0.375 13.6016 0.375 12.125V10.1562C0.375 9.80078 0.648438 9.5 1.03125 9.5C1.38672 9.5 1.6875 9.80078 1.6875 10.1562V12.125C1.6875 12.8633 2.26172 13.4375 3 13.4375H10C10.7109 13.4375 11.3125 12.8633 11.3125 12.125V10.1562C11.3125 9.80078 11.5859 9.5 11.9688 9.5ZM6.03516 0.941406L2.31641 4.41406C2.04297 4.6875 2.04297 5.09766 2.28906 5.37109C2.53516 5.64453 2.94531 5.64453 3.21875 5.39844L5.84375 2.9375V9.71875C5.84375 10.1016 6.11719 10.375 6.5 10.375C6.85547 10.375 7.15625 10.1016 7.15625 9.74609V2.9375L9.75391 5.39844C10.0273 5.64453 10.4375 5.64453 10.6836 5.37109C10.793 5.23438 10.875 5.07031 10.875 4.90625C10.875 4.74219 10.793 4.57812 10.6562 4.44141L6.9375 0.96875C6.69141 0.695312 6.28125 0.695312 6.03516 0.941406Z" fill="white"/>
</svg>
