<svg width="60" height="1240" viewBox="0 0 60 1240" fill="none" xmlns="http://www.w3.org/2000/svg">
<g clip-path="url(#clip0_223_6619)">
<mask id="path-1-inside-1_223_6619" fill="white">
<path d="M0 5.99999C0 2.68629 2.68629 0 6 0H54C57.3137 0 60 2.68629 60 6V1234C60 1237.31 57.3137 1240 54 1240H6C2.68629 1240 0 1237.31 0 1234V5.99999Z"/>
</mask>
<mask id="path-3-inside-2_223_6619" fill="white">
<path d="M0 0H92V40H0V0Z"/>
</mask>
<path d="M0 0H92V40H0V0Z" fill="#F7F8F9"/>
<path d="M92 40V39H0V40V41H92V40Z" fill="#F1F2F4" mask="url(#path-3-inside-2_223_6619)"/>
<mask id="path-5-inside-3_223_6619" fill="white">
<path d="M0 40H60V100H0V40Z"/>
</mask>
<path d="M0 40H60V100H0V40Z" fill="white"/>
<path d="M60 100V99H0V100V101H60V100Z" fill="#F1F2F4" mask="url(#path-5-inside-3_223_6619)"/>
<path d="M23.6719 73.8281L19.7344 69.8906C19.5703 69.7266 19.5703 69.4258 19.7344 69.2617C19.8984 69.0977 20.1992 69.0977 20.3633 69.2617L23.5625 72.4609V64.3125C23.5625 64.0938 23.7539 63.875 24 63.875C24.2188 63.875 24.4375 64.0938 24.4375 64.3125V72.4609L27.6094 69.2617C27.7734 69.0977 28.0742 69.0977 28.2383 69.2617C28.4023 69.4258 28.4023 69.7266 28.2383 69.8906L24.3008 73.8281C24.2188 73.9102 24.1094 73.9375 24 73.9375C23.8633 73.9375 23.7539 73.9102 23.6719 73.8281ZM28.8125 75.25C29.0312 75.25 29.25 75.4688 29.25 75.6875C29.25 75.9336 29.0312 76.125 28.8125 76.125H19.1875C18.9414 76.125 18.75 75.9336 18.75 75.6875C18.75 75.4688 18.9414 75.25 19.1875 75.25H28.8125Z" fill="#44546F"/>
<mask id="path-9-inside-4_223_6619" fill="white">
<path d="M0 100H60V160H0V100Z"/>
</mask>
<path d="M0 100H60V160H0V100Z" fill="white"/>
<path d="M60 160V159H0V160V161H60V160Z" fill="#F1F2F4" mask="url(#path-9-inside-4_223_6619)"/>
<path d="M23.6719 133.828L19.7344 129.891C19.5703 129.727 19.5703 129.426 19.7344 129.262C19.8984 129.098 20.1992 129.098 20.3633 129.262L23.5625 132.461V124.312C23.5625 124.094 23.7539 123.875 24 123.875C24.2188 123.875 24.4375 124.094 24.4375 124.312V132.461L27.6094 129.262C27.7734 129.098 28.0742 129.098 28.2383 129.262C28.4023 129.426 28.4023 129.727 28.2383 129.891L24.3008 133.828C24.2188 133.91 24.1094 133.938 24 133.938C23.8633 133.938 23.7539 133.91 23.6719 133.828ZM28.8125 135.25C29.0312 135.25 29.25 135.469 29.25 135.688C29.25 135.934 29.0312 136.125 28.8125 136.125H19.1875C18.9414 136.125 18.75 135.934 18.75 135.688C18.75 135.469 18.9414 135.25 19.1875 135.25H28.8125Z" fill="#44546F"/>
<mask id="path-13-inside-5_223_6619" fill="white">
<path d="M0 160H60V220H0V160Z"/>
</mask>
<path d="M0 160H60V220H0V160Z" fill="white"/>
<path d="M60 220V219H0V220V221H60V220Z" fill="#F1F2F4" mask="url(#path-13-inside-5_223_6619)"/>
<path d="M23.6719 193.828L19.7344 189.891C19.5703 189.727 19.5703 189.426 19.7344 189.262C19.8984 189.098 20.1992 189.098 20.3633 189.262L23.5625 192.461V184.312C23.5625 184.094 23.7539 183.875 24 183.875C24.2188 183.875 24.4375 184.094 24.4375 184.312V192.461L27.6094 189.262C27.7734 189.098 28.0742 189.098 28.2383 189.262C28.4023 189.426 28.4023 189.727 28.2383 189.891L24.3008 193.828C24.2188 193.91 24.1094 193.938 24 193.938C23.8633 193.938 23.7539 193.91 23.6719 193.828ZM28.8125 195.25C29.0312 195.25 29.25 195.469 29.25 195.688C29.25 195.934 29.0312 196.125 28.8125 196.125H19.1875C18.9414 196.125 18.75 195.934 18.75 195.688C18.75 195.469 18.9414 195.25 19.1875 195.25H28.8125Z" fill="#44546F"/>
<mask id="path-17-inside-6_223_6619" fill="white">
<path d="M0 220H60V280H0V220Z"/>
</mask>
<path d="M0 220H60V280H0V220Z" fill="white"/>
<path d="M60 280V279H0V280V281H60V280Z" fill="#F1F2F4" mask="url(#path-17-inside-6_223_6619)"/>
<path d="M23.6719 253.828L19.7344 249.891C19.5703 249.727 19.5703 249.426 19.7344 249.262C19.8984 249.098 20.1992 249.098 20.3633 249.262L23.5625 252.461V244.312C23.5625 244.094 23.7539 243.875 24 243.875C24.2188 243.875 24.4375 244.094 24.4375 244.312V252.461L27.6094 249.262C27.7734 249.098 28.0742 249.098 28.2383 249.262C28.4023 249.426 28.4023 249.727 28.2383 249.891L24.3008 253.828C24.2188 253.91 24.1094 253.938 24 253.938C23.8633 253.938 23.7539 253.91 23.6719 253.828ZM28.8125 255.25C29.0312 255.25 29.25 255.469 29.25 255.688C29.25 255.934 29.0312 256.125 28.8125 256.125H19.1875C18.9414 256.125 18.75 255.934 18.75 255.688C18.75 255.469 18.9414 255.25 19.1875 255.25H28.8125Z" fill="#44546F"/>
<mask id="path-21-inside-7_223_6619" fill="white">
<path d="M0 280H60V340H0V280Z"/>
</mask>
<path d="M0 280H60V340H0V280Z" fill="white"/>
<path d="M60 340V339H0V340V341H60V340Z" fill="#F1F2F4" mask="url(#path-21-inside-7_223_6619)"/>
<path d="M23.6719 313.828L19.7344 309.891C19.5703 309.727 19.5703 309.426 19.7344 309.262C19.8984 309.098 20.1992 309.098 20.3633 309.262L23.5625 312.461V304.312C23.5625 304.094 23.7539 303.875 24 303.875C24.2188 303.875 24.4375 304.094 24.4375 304.312V312.461L27.6094 309.262C27.7734 309.098 28.0742 309.098 28.2383 309.262C28.4023 309.426 28.4023 309.727 28.2383 309.891L24.3008 313.828C24.2188 313.91 24.1094 313.938 24 313.938C23.8633 313.938 23.7539 313.91 23.6719 313.828ZM28.8125 315.25C29.0312 315.25 29.25 315.469 29.25 315.688C29.25 315.934 29.0312 316.125 28.8125 316.125H19.1875C18.9414 316.125 18.75 315.934 18.75 315.688C18.75 315.469 18.9414 315.25 19.1875 315.25H28.8125Z" fill="#44546F"/>
<mask id="path-25-inside-8_223_6619" fill="white">
<path d="M0 340H60V400H0V340Z"/>
</mask>
<path d="M0 340H60V400H0V340Z" fill="white"/>
<path d="M60 400V399H0V400V401H60V400Z" fill="#F1F2F4" mask="url(#path-25-inside-8_223_6619)"/>
<path d="M23.6719 373.828L19.7344 369.891C19.5703 369.727 19.5703 369.426 19.7344 369.262C19.8984 369.098 20.1992 369.098 20.3633 369.262L23.5625 372.461V364.312C23.5625 364.094 23.7539 363.875 24 363.875C24.2188 363.875 24.4375 364.094 24.4375 364.312V372.461L27.6094 369.262C27.7734 369.098 28.0742 369.098 28.2383 369.262C28.4023 369.426 28.4023 369.727 28.2383 369.891L24.3008 373.828C24.2188 373.91 24.1094 373.938 24 373.938C23.8633 373.938 23.7539 373.91 23.6719 373.828ZM28.8125 375.25C29.0312 375.25 29.25 375.469 29.25 375.688C29.25 375.934 29.0312 376.125 28.8125 376.125H19.1875C18.9414 376.125 18.75 375.934 18.75 375.688C18.75 375.469 18.9414 375.25 19.1875 375.25H28.8125Z" fill="#44546F"/>
<mask id="path-29-inside-9_223_6619" fill="white">
<path d="M0 400H60V460H0V400Z"/>
</mask>
<path d="M0 400H60V460H0V400Z" fill="white"/>
<path d="M60 460V459H0V460V461H60V460Z" fill="#F1F2F4" mask="url(#path-29-inside-9_223_6619)"/>
<path d="M23.6719 433.828L19.7344 429.891C19.5703 429.727 19.5703 429.426 19.7344 429.262C19.8984 429.098 20.1992 429.098 20.3633 429.262L23.5625 432.461V424.312C23.5625 424.094 23.7539 423.875 24 423.875C24.2188 423.875 24.4375 424.094 24.4375 424.312V432.461L27.6094 429.262C27.7734 429.098 28.0742 429.098 28.2383 429.262C28.4023 429.426 28.4023 429.727 28.2383 429.891L24.3008 433.828C24.2188 433.91 24.1094 433.938 24 433.938C23.8633 433.938 23.7539 433.91 23.6719 433.828ZM28.8125 435.25C29.0312 435.25 29.25 435.469 29.25 435.688C29.25 435.934 29.0312 436.125 28.8125 436.125H19.1875C18.9414 436.125 18.75 435.934 18.75 435.688C18.75 435.469 18.9414 435.25 19.1875 435.25H28.8125Z" fill="#44546F"/>
<mask id="path-33-inside-10_223_6619" fill="white">
<path d="M0 460H60V520H0V460Z"/>
</mask>
<path d="M0 460H60V520H0V460Z" fill="white"/>
<path d="M60 520V519H0V520V521H60V520Z" fill="#F1F2F4" mask="url(#path-33-inside-10_223_6619)"/>
<path d="M23.6719 493.828L19.7344 489.891C19.5703 489.727 19.5703 489.426 19.7344 489.262C19.8984 489.098 20.1992 489.098 20.3633 489.262L23.5625 492.461V484.312C23.5625 484.094 23.7539 483.875 24 483.875C24.2188 483.875 24.4375 484.094 24.4375 484.312V492.461L27.6094 489.262C27.7734 489.098 28.0742 489.098 28.2383 489.262C28.4023 489.426 28.4023 489.727 28.2383 489.891L24.3008 493.828C24.2188 493.91 24.1094 493.938 24 493.938C23.8633 493.938 23.7539 493.91 23.6719 493.828ZM28.8125 495.25C29.0312 495.25 29.25 495.469 29.25 495.688C29.25 495.934 29.0312 496.125 28.8125 496.125H19.1875C18.9414 496.125 18.75 495.934 18.75 495.688C18.75 495.469 18.9414 495.25 19.1875 495.25H28.8125Z" fill="#44546F"/>
<mask id="path-37-inside-11_223_6619" fill="white">
<path d="M0 520H60V580H0V520Z"/>
</mask>
<path d="M0 520H60V580H0V520Z" fill="white"/>
<path d="M60 580V579H0V580V581H60V580Z" fill="#F1F2F4" mask="url(#path-37-inside-11_223_6619)"/>
<path d="M23.6719 553.828L19.7344 549.891C19.5703 549.727 19.5703 549.426 19.7344 549.262C19.8984 549.098 20.1992 549.098 20.3633 549.262L23.5625 552.461V544.312C23.5625 544.094 23.7539 543.875 24 543.875C24.2188 543.875 24.4375 544.094 24.4375 544.312V552.461L27.6094 549.262C27.7734 549.098 28.0742 549.098 28.2383 549.262C28.4023 549.426 28.4023 549.727 28.2383 549.891L24.3008 553.828C24.2188 553.91 24.1094 553.938 24 553.938C23.8633 553.938 23.7539 553.91 23.6719 553.828ZM28.8125 555.25C29.0312 555.25 29.25 555.469 29.25 555.688C29.25 555.934 29.0312 556.125 28.8125 556.125H19.1875C18.9414 556.125 18.75 555.934 18.75 555.688C18.75 555.469 18.9414 555.25 19.1875 555.25H28.8125Z" fill="#44546F"/>
<mask id="path-41-inside-12_223_6619" fill="white">
<path d="M0 580H60V640H0V580Z"/>
</mask>
<path d="M0 580H60V640H0V580Z" fill="white"/>
<path d="M60 640V639H0V640V641H60V640Z" fill="#F1F2F4" mask="url(#path-41-inside-12_223_6619)"/>
<path d="M23.6719 613.828L19.7344 609.891C19.5703 609.727 19.5703 609.426 19.7344 609.262C19.8984 609.098 20.1992 609.098 20.3633 609.262L23.5625 612.461V604.312C23.5625 604.094 23.7539 603.875 24 603.875C24.2188 603.875 24.4375 604.094 24.4375 604.312V612.461L27.6094 609.262C27.7734 609.098 28.0742 609.098 28.2383 609.262C28.4023 609.426 28.4023 609.727 28.2383 609.891L24.3008 613.828C24.2188 613.91 24.1094 613.938 24 613.938C23.8633 613.938 23.7539 613.91 23.6719 613.828ZM28.8125 615.25C29.0312 615.25 29.25 615.469 29.25 615.688C29.25 615.934 29.0312 616.125 28.8125 616.125H19.1875C18.9414 616.125 18.75 615.934 18.75 615.688C18.75 615.469 18.9414 615.25 19.1875 615.25H28.8125Z" fill="#44546F"/>
<mask id="path-45-inside-13_223_6619" fill="white">
<path d="M0 640H60V700H0V640Z"/>
</mask>
<path d="M0 640H60V700H0V640Z" fill="white"/>
<path d="M60 700V699H0V700V701H60V700Z" fill="#F1F2F4" mask="url(#path-45-inside-13_223_6619)"/>
<path d="M23.6719 673.828L19.7344 669.891C19.5703 669.727 19.5703 669.426 19.7344 669.262C19.8984 669.098 20.1992 669.098 20.3633 669.262L23.5625 672.461V664.312C23.5625 664.094 23.7539 663.875 24 663.875C24.2188 663.875 24.4375 664.094 24.4375 664.312V672.461L27.6094 669.262C27.7734 669.098 28.0742 669.098 28.2383 669.262C28.4023 669.426 28.4023 669.727 28.2383 669.891L24.3008 673.828C24.2188 673.91 24.1094 673.938 24 673.938C23.8633 673.938 23.7539 673.91 23.6719 673.828ZM28.8125 675.25C29.0312 675.25 29.25 675.469 29.25 675.688C29.25 675.934 29.0312 676.125 28.8125 676.125H19.1875C18.9414 676.125 18.75 675.934 18.75 675.688C18.75 675.469 18.9414 675.25 19.1875 675.25H28.8125Z" fill="#44546F"/>
<mask id="path-49-inside-14_223_6619" fill="white">
<path d="M0 700H60V760H0V700Z"/>
</mask>
<path d="M0 700H60V760H0V700Z" fill="white"/>
<path d="M60 760V759H0V760V761H60V760Z" fill="#F1F2F4" mask="url(#path-49-inside-14_223_6619)"/>
<path d="M23.6719 733.828L19.7344 729.891C19.5703 729.727 19.5703 729.426 19.7344 729.262C19.8984 729.098 20.1992 729.098 20.3633 729.262L23.5625 732.461V724.312C23.5625 724.094 23.7539 723.875 24 723.875C24.2188 723.875 24.4375 724.094 24.4375 724.312V732.461L27.6094 729.262C27.7734 729.098 28.0742 729.098 28.2383 729.262C28.4023 729.426 28.4023 729.727 28.2383 729.891L24.3008 733.828C24.2188 733.91 24.1094 733.938 24 733.938C23.8633 733.938 23.7539 733.91 23.6719 733.828ZM28.8125 735.25C29.0312 735.25 29.25 735.469 29.25 735.688C29.25 735.934 29.0312 736.125 28.8125 736.125H19.1875C18.9414 736.125 18.75 735.934 18.75 735.688C18.75 735.469 18.9414 735.25 19.1875 735.25H28.8125Z" fill="#44546F"/>
<mask id="path-53-inside-15_223_6619" fill="white">
<path d="M0 760H60V820H0V760Z"/>
</mask>
<path d="M0 760H60V820H0V760Z" fill="white"/>
<path d="M60 820V819H0V820V821H60V820Z" fill="#F1F2F4" mask="url(#path-53-inside-15_223_6619)"/>
<path d="M23.6719 793.828L19.7344 789.891C19.5703 789.727 19.5703 789.426 19.7344 789.262C19.8984 789.098 20.1992 789.098 20.3633 789.262L23.5625 792.461V784.312C23.5625 784.094 23.7539 783.875 24 783.875C24.2188 783.875 24.4375 784.094 24.4375 784.312V792.461L27.6094 789.262C27.7734 789.098 28.0742 789.098 28.2383 789.262C28.4023 789.426 28.4023 789.727 28.2383 789.891L24.3008 793.828C24.2188 793.91 24.1094 793.938 24 793.938C23.8633 793.938 23.7539 793.91 23.6719 793.828ZM28.8125 795.25C29.0312 795.25 29.25 795.469 29.25 795.688C29.25 795.934 29.0312 796.125 28.8125 796.125H19.1875C18.9414 796.125 18.75 795.934 18.75 795.688C18.75 795.469 18.9414 795.25 19.1875 795.25H28.8125Z" fill="#44546F"/>
<mask id="path-57-inside-16_223_6619" fill="white">
<path d="M0 820H60V880H0V820Z"/>
</mask>
<path d="M0 820H60V880H0V820Z" fill="white"/>
<path d="M60 880V879H0V880V881H60V880Z" fill="#F1F2F4" mask="url(#path-57-inside-16_223_6619)"/>
<path d="M23.6719 853.828L19.7344 849.891C19.5703 849.727 19.5703 849.426 19.7344 849.262C19.8984 849.098 20.1992 849.098 20.3633 849.262L23.5625 852.461V844.312C23.5625 844.094 23.7539 843.875 24 843.875C24.2188 843.875 24.4375 844.094 24.4375 844.312V852.461L27.6094 849.262C27.7734 849.098 28.0742 849.098 28.2383 849.262C28.4023 849.426 28.4023 849.727 28.2383 849.891L24.3008 853.828C24.2188 853.91 24.1094 853.938 24 853.938C23.8633 853.938 23.7539 853.91 23.6719 853.828ZM28.8125 855.25C29.0312 855.25 29.25 855.469 29.25 855.688C29.25 855.934 29.0312 856.125 28.8125 856.125H19.1875C18.9414 856.125 18.75 855.934 18.75 855.688C18.75 855.469 18.9414 855.25 19.1875 855.25H28.8125Z" fill="#44546F"/>
<mask id="path-61-inside-17_223_6619" fill="white">
<path d="M0 880H60V940H0V880Z"/>
</mask>
<path d="M0 880H60V940H0V880Z" fill="white"/>
<path d="M60 940V939H0V940V941H60V940Z" fill="#F1F2F4" mask="url(#path-61-inside-17_223_6619)"/>
<path d="M23.6719 913.828L19.7344 909.891C19.5703 909.727 19.5703 909.426 19.7344 909.262C19.8984 909.098 20.1992 909.098 20.3633 909.262L23.5625 912.461V904.312C23.5625 904.094 23.7539 903.875 24 903.875C24.2188 903.875 24.4375 904.094 24.4375 904.312V912.461L27.6094 909.262C27.7734 909.098 28.0742 909.098 28.2383 909.262C28.4023 909.426 28.4023 909.727 28.2383 909.891L24.3008 913.828C24.2188 913.91 24.1094 913.938 24 913.938C23.8633 913.938 23.7539 913.91 23.6719 913.828ZM28.8125 915.25C29.0312 915.25 29.25 915.469 29.25 915.688C29.25 915.934 29.0312 916.125 28.8125 916.125H19.1875C18.9414 916.125 18.75 915.934 18.75 915.688C18.75 915.469 18.9414 915.25 19.1875 915.25H28.8125Z" fill="#44546F"/>
<mask id="path-65-inside-18_223_6619" fill="white">
<path d="M0 940H60V1000H0V940Z"/>
</mask>
<path d="M0 940H60V1000H0V940Z" fill="white"/>
<path d="M60 1000V999H0V1000V1001H60V1000Z" fill="#F1F2F4" mask="url(#path-65-inside-18_223_6619)"/>
<path d="M23.6719 973.828L19.7344 969.891C19.5703 969.727 19.5703 969.426 19.7344 969.262C19.8984 969.098 20.1992 969.098 20.3633 969.262L23.5625 972.461V964.312C23.5625 964.094 23.7539 963.875 24 963.875C24.2188 963.875 24.4375 964.094 24.4375 964.312V972.461L27.6094 969.262C27.7734 969.098 28.0742 969.098 28.2383 969.262C28.4023 969.426 28.4023 969.727 28.2383 969.891L24.3008 973.828C24.2188 973.91 24.1094 973.938 24 973.938C23.8633 973.938 23.7539 973.91 23.6719 973.828ZM28.8125 975.25C29.0312 975.25 29.25 975.469 29.25 975.688C29.25 975.934 29.0312 976.125 28.8125 976.125H19.1875C18.9414 976.125 18.75 975.934 18.75 975.688C18.75 975.469 18.9414 975.25 19.1875 975.25H28.8125Z" fill="#44546F"/>
<mask id="path-69-inside-19_223_6619" fill="white">
<path d="M0 1000H60V1060H0V1000Z"/>
</mask>
<path d="M0 1000H60V1060H0V1000Z" fill="white"/>
<path d="M60 1060V1059H0V1060V1061H60V1060Z" fill="#F1F2F4" mask="url(#path-69-inside-19_223_6619)"/>
<path d="M23.6719 1033.83L19.7344 1029.89C19.5703 1029.73 19.5703 1029.43 19.7344 1029.26C19.8984 1029.1 20.1992 1029.1 20.3633 1029.26L23.5625 1032.46V1024.31C23.5625 1024.09 23.7539 1023.88 24 1023.88C24.2188 1023.88 24.4375 1024.09 24.4375 1024.31V1032.46L27.6094 1029.26C27.7734 1029.1 28.0742 1029.1 28.2383 1029.26C28.4023 1029.43 28.4023 1029.73 28.2383 1029.89L24.3008 1033.83C24.2188 1033.91 24.1094 1033.94 24 1033.94C23.8633 1033.94 23.7539 1033.91 23.6719 1033.83ZM28.8125 1035.25C29.0312 1035.25 29.25 1035.47 29.25 1035.69C29.25 1035.93 29.0312 1036.12 28.8125 1036.12H19.1875C18.9414 1036.12 18.75 1035.93 18.75 1035.69C18.75 1035.47 18.9414 1035.25 19.1875 1035.25H28.8125Z" fill="#44546F"/>
<mask id="path-73-inside-20_223_6619" fill="white">
<path d="M0 1060H60V1120H0V1060Z"/>
</mask>
<path d="M0 1060H60V1120H0V1060Z" fill="white"/>
<path d="M60 1120V1119H0V1120V1121H60V1120Z" fill="#F1F2F4" mask="url(#path-73-inside-20_223_6619)"/>
<path d="M23.6719 1093.83L19.7344 1089.89C19.5703 1089.73 19.5703 1089.43 19.7344 1089.26C19.8984 1089.1 20.1992 1089.1 20.3633 1089.26L23.5625 1092.46V1084.31C23.5625 1084.09 23.7539 1083.88 24 1083.88C24.2188 1083.88 24.4375 1084.09 24.4375 1084.31V1092.46L27.6094 1089.26C27.7734 1089.1 28.0742 1089.1 28.2383 1089.26C28.4023 1089.43 28.4023 1089.73 28.2383 1089.89L24.3008 1093.83C24.2188 1093.91 24.1094 1093.94 24 1093.94C23.8633 1093.94 23.7539 1093.91 23.6719 1093.83ZM28.8125 1095.25C29.0312 1095.25 29.25 1095.47 29.25 1095.69C29.25 1095.93 29.0312 1096.12 28.8125 1096.12H19.1875C18.9414 1096.12 18.75 1095.93 18.75 1095.69C18.75 1095.47 18.9414 1095.25 19.1875 1095.25H28.8125Z" fill="#44546F"/>
<mask id="path-77-inside-21_223_6619" fill="white">
<path d="M0 1120H60V1180H0V1120Z"/>
</mask>
<path d="M0 1120H60V1180H0V1120Z" fill="white"/>
<path d="M60 1180V1179H0V1180V1181H60V1180Z" fill="#F1F2F4" mask="url(#path-77-inside-21_223_6619)"/>
<path d="M23.6719 1153.83L19.7344 1149.89C19.5703 1149.73 19.5703 1149.43 19.7344 1149.26C19.8984 1149.1 20.1992 1149.1 20.3633 1149.26L23.5625 1152.46V1144.31C23.5625 1144.09 23.7539 1143.88 24 1143.88C24.2188 1143.88 24.4375 1144.09 24.4375 1144.31V1152.46L27.6094 1149.26C27.7734 1149.1 28.0742 1149.1 28.2383 1149.26C28.4023 1149.43 28.4023 1149.73 28.2383 1149.89L24.3008 1153.83C24.2188 1153.91 24.1094 1153.94 24 1153.94C23.8633 1153.94 23.7539 1153.91 23.6719 1153.83ZM28.8125 1155.25C29.0312 1155.25 29.25 1155.47 29.25 1155.69C29.25 1155.93 29.0312 1156.12 28.8125 1156.12H19.1875C18.9414 1156.12 18.75 1155.93 18.75 1155.69C18.75 1155.47 18.9414 1155.25 19.1875 1155.25H28.8125Z" fill="#44546F"/>
<mask id="path-81-inside-22_223_6619" fill="white">
<path d="M0 1180H60V1240H0V1180Z"/>
</mask>
<path d="M0 1180H60V1240H0V1180Z" fill="white"/>
<path d="M60 1240V1239H0V1240V1241H60V1240Z" fill="#F1F2F4" mask="url(#path-81-inside-22_223_6619)"/>
<path d="M23.6719 1213.83L19.7344 1209.89C19.5703 1209.73 19.5703 1209.43 19.7344 1209.26C19.8984 1209.1 20.1992 1209.1 20.3633 1209.26L23.5625 1212.46V1204.31C23.5625 1204.09 23.7539 1203.88 24 1203.88C24.2188 1203.88 24.4375 1204.09 24.4375 1204.31V1212.46L27.6094 1209.26C27.7734 1209.1 28.0742 1209.1 28.2383 1209.26C28.4023 1209.43 28.4023 1209.73 28.2383 1209.89L24.3008 1213.83C24.2188 1213.91 24.1094 1213.94 24 1213.94C23.8633 1213.94 23.7539 1213.91 23.6719 1213.83ZM28.8125 1215.25C29.0312 1215.25 29.25 1215.47 29.25 1215.69C29.25 1215.93 29.0312 1216.12 28.8125 1216.12H19.1875C18.9414 1216.12 18.75 1215.93 18.75 1215.69C18.75 1215.47 18.9414 1215.25 19.1875 1215.25H28.8125Z" fill="#44546F"/>
</g>
<path d="M0 0H60H0ZM60 1240H0H60ZM6 1240C2.13401 1240 -1 1236.87 -1 1233V7C-1 3.13401 2.13401 0 6 0C3.23858 0 1 2.68629 1 6V1234C1 1237.31 3.23858 1240 6 1240ZM60 0V1240V0Z" fill="#F1F2F4" mask="url(#path-1-inside-1_223_6619)"/>
<defs>
<clipPath id="clip0_223_6619">
<path d="M0 5.99999C0 2.68629 2.68629 0 6 0H54C57.3137 0 60 2.68629 60 6V1234C60 1237.31 57.3137 1240 54 1240H6C2.68629 1240 0 1237.31 0 1234V5.99999Z" fill="white"/>
</clipPath>
</defs>
</svg>
