<svg width="60" height="1240" viewBox="0 0 60 1240" fill="none" xmlns="http://www.w3.org/2000/svg">
<g clip-path="url(#clip0_223_5157)">
<mask id="path-1-inside-1_223_5157" fill="white">
<path d="M0 0H54C57.3137 0 60 2.68629 60 6V1234C60 1237.31 57.3137 1240 54 1240H0V0Z"/>
</mask>
<mask id="path-3-inside-2_223_5157" fill="white">
<path d="M0 0H92V40H0V0Z"/>
</mask>
<path d="M0 0H92V40H0V0Z" fill="#F7F8F9"/>
<path d="M92 40V39H0V40V41H92V40Z" fill="#F1F2F4" mask="url(#path-3-inside-2_223_5157)"/>
<mask id="path-5-inside-3_223_5157" fill="white">
<path d="M0 40H60V100H0V40Z"/>
</mask>
<path d="M0 40H60V100H0V40Z" fill="white"/>
<path d="M60 100V99H0V100V101H60V100Z" fill="#F1F2F4" mask="url(#path-5-inside-3_223_5157)"/>
<path d="M24 73.5C24.4648 73.5 24.875 73.9102 24.875 74.375C24.875 74.8672 24.4648 75.25 24 75.25C23.5078 75.25 23.125 74.8672 23.125 74.375C23.125 73.9102 23.5078 73.5 24 73.5ZM24 69.125C24.4648 69.125 24.875 69.5352 24.875 70C24.875 70.4922 24.4648 70.875 24 70.875C23.5078 70.875 23.125 70.4922 23.125 70C23.125 69.5352 23.5078 69.125 24 69.125ZM24 66.5C23.5078 66.5 23.125 66.1172 23.125 65.625C23.125 65.1602 23.5078 64.75 24 64.75C24.4648 64.75 24.875 65.1602 24.875 65.625C24.875 66.1172 24.4648 66.5 24 66.5Z" fill="#44546F"/>
<mask id="path-9-inside-4_223_5157" fill="white">
<path d="M0 100H60V160H0V100Z"/>
</mask>
<path d="M0 100H60V160H0V100Z" fill="white"/>
<path d="M60 160V159H0V160V161H60V160Z" fill="#F1F2F4" mask="url(#path-9-inside-4_223_5157)"/>
<path d="M24 133.5C24.4648 133.5 24.875 133.91 24.875 134.375C24.875 134.867 24.4648 135.25 24 135.25C23.5078 135.25 23.125 134.867 23.125 134.375C23.125 133.91 23.5078 133.5 24 133.5ZM24 129.125C24.4648 129.125 24.875 129.535 24.875 130C24.875 130.492 24.4648 130.875 24 130.875C23.5078 130.875 23.125 130.492 23.125 130C23.125 129.535 23.5078 129.125 24 129.125ZM24 126.5C23.5078 126.5 23.125 126.117 23.125 125.625C23.125 125.16 23.5078 124.75 24 124.75C24.4648 124.75 24.875 125.16 24.875 125.625C24.875 126.117 24.4648 126.5 24 126.5Z" fill="#44546F"/>
<mask id="path-13-inside-5_223_5157" fill="white">
<path d="M0 160H60V220H0V160Z"/>
</mask>
<path d="M0 160H60V220H0V160Z" fill="white"/>
<path d="M60 220V219H0V220V221H60V220Z" fill="#F1F2F4" mask="url(#path-13-inside-5_223_5157)"/>
<path d="M24 193.5C24.4648 193.5 24.875 193.91 24.875 194.375C24.875 194.867 24.4648 195.25 24 195.25C23.5078 195.25 23.125 194.867 23.125 194.375C23.125 193.91 23.5078 193.5 24 193.5ZM24 189.125C24.4648 189.125 24.875 189.535 24.875 190C24.875 190.492 24.4648 190.875 24 190.875C23.5078 190.875 23.125 190.492 23.125 190C23.125 189.535 23.5078 189.125 24 189.125ZM24 186.5C23.5078 186.5 23.125 186.117 23.125 185.625C23.125 185.16 23.5078 184.75 24 184.75C24.4648 184.75 24.875 185.16 24.875 185.625C24.875 186.117 24.4648 186.5 24 186.5Z" fill="#44546F"/>
<mask id="path-17-inside-6_223_5157" fill="white">
<path d="M0 220H60V280H0V220Z"/>
</mask>
<path d="M0 220H60V280H0V220Z" fill="white"/>
<path d="M60 280V279H0V280V281H60V280Z" fill="#F1F2F4" mask="url(#path-17-inside-6_223_5157)"/>
<path d="M24 253.5C24.4648 253.5 24.875 253.91 24.875 254.375C24.875 254.867 24.4648 255.25 24 255.25C23.5078 255.25 23.125 254.867 23.125 254.375C23.125 253.91 23.5078 253.5 24 253.5ZM24 249.125C24.4648 249.125 24.875 249.535 24.875 250C24.875 250.492 24.4648 250.875 24 250.875C23.5078 250.875 23.125 250.492 23.125 250C23.125 249.535 23.5078 249.125 24 249.125ZM24 246.5C23.5078 246.5 23.125 246.117 23.125 245.625C23.125 245.16 23.5078 244.75 24 244.75C24.4648 244.75 24.875 245.16 24.875 245.625C24.875 246.117 24.4648 246.5 24 246.5Z" fill="#44546F"/>
<mask id="path-21-inside-7_223_5157" fill="white">
<path d="M0 280H60V340H0V280Z"/>
</mask>
<path d="M0 280H60V340H0V280Z" fill="white"/>
<path d="M60 340V339H0V340V341H60V340Z" fill="#F1F2F4" mask="url(#path-21-inside-7_223_5157)"/>
<path d="M24 313.5C24.4648 313.5 24.875 313.91 24.875 314.375C24.875 314.867 24.4648 315.25 24 315.25C23.5078 315.25 23.125 314.867 23.125 314.375C23.125 313.91 23.5078 313.5 24 313.5ZM24 309.125C24.4648 309.125 24.875 309.535 24.875 310C24.875 310.492 24.4648 310.875 24 310.875C23.5078 310.875 23.125 310.492 23.125 310C23.125 309.535 23.5078 309.125 24 309.125ZM24 306.5C23.5078 306.5 23.125 306.117 23.125 305.625C23.125 305.16 23.5078 304.75 24 304.75C24.4648 304.75 24.875 305.16 24.875 305.625C24.875 306.117 24.4648 306.5 24 306.5Z" fill="#44546F"/>
<mask id="path-25-inside-8_223_5157" fill="white">
<path d="M0 340H60V400H0V340Z"/>
</mask>
<path d="M0 340H60V400H0V340Z" fill="white"/>
<path d="M60 400V399H0V400V401H60V400Z" fill="#F1F2F4" mask="url(#path-25-inside-8_223_5157)"/>
<path d="M24 373.5C24.4648 373.5 24.875 373.91 24.875 374.375C24.875 374.867 24.4648 375.25 24 375.25C23.5078 375.25 23.125 374.867 23.125 374.375C23.125 373.91 23.5078 373.5 24 373.5ZM24 369.125C24.4648 369.125 24.875 369.535 24.875 370C24.875 370.492 24.4648 370.875 24 370.875C23.5078 370.875 23.125 370.492 23.125 370C23.125 369.535 23.5078 369.125 24 369.125ZM24 366.5C23.5078 366.5 23.125 366.117 23.125 365.625C23.125 365.16 23.5078 364.75 24 364.75C24.4648 364.75 24.875 365.16 24.875 365.625C24.875 366.117 24.4648 366.5 24 366.5Z" fill="#44546F"/>
<mask id="path-29-inside-9_223_5157" fill="white">
<path d="M0 400H60V460H0V400Z"/>
</mask>
<path d="M0 400H60V460H0V400Z" fill="white"/>
<path d="M60 460V459H0V460V461H60V460Z" fill="#F1F2F4" mask="url(#path-29-inside-9_223_5157)"/>
<path d="M24 433.5C24.4648 433.5 24.875 433.91 24.875 434.375C24.875 434.867 24.4648 435.25 24 435.25C23.5078 435.25 23.125 434.867 23.125 434.375C23.125 433.91 23.5078 433.5 24 433.5ZM24 429.125C24.4648 429.125 24.875 429.535 24.875 430C24.875 430.492 24.4648 430.875 24 430.875C23.5078 430.875 23.125 430.492 23.125 430C23.125 429.535 23.5078 429.125 24 429.125ZM24 426.5C23.5078 426.5 23.125 426.117 23.125 425.625C23.125 425.16 23.5078 424.75 24 424.75C24.4648 424.75 24.875 425.16 24.875 425.625C24.875 426.117 24.4648 426.5 24 426.5Z" fill="#44546F"/>
<mask id="path-33-inside-10_223_5157" fill="white">
<path d="M0 460H60V520H0V460Z"/>
</mask>
<path d="M0 460H60V520H0V460Z" fill="white"/>
<path d="M60 520V519H0V520V521H60V520Z" fill="#F1F2F4" mask="url(#path-33-inside-10_223_5157)"/>
<path d="M24 493.5C24.4648 493.5 24.875 493.91 24.875 494.375C24.875 494.867 24.4648 495.25 24 495.25C23.5078 495.25 23.125 494.867 23.125 494.375C23.125 493.91 23.5078 493.5 24 493.5ZM24 489.125C24.4648 489.125 24.875 489.535 24.875 490C24.875 490.492 24.4648 490.875 24 490.875C23.5078 490.875 23.125 490.492 23.125 490C23.125 489.535 23.5078 489.125 24 489.125ZM24 486.5C23.5078 486.5 23.125 486.117 23.125 485.625C23.125 485.16 23.5078 484.75 24 484.75C24.4648 484.75 24.875 485.16 24.875 485.625C24.875 486.117 24.4648 486.5 24 486.5Z" fill="#44546F"/>
<mask id="path-37-inside-11_223_5157" fill="white">
<path d="M0 520H60V580H0V520Z"/>
</mask>
<path d="M0 520H60V580H0V520Z" fill="white"/>
<path d="M60 580V579H0V580V581H60V580Z" fill="#F1F2F4" mask="url(#path-37-inside-11_223_5157)"/>
<path d="M24 553.5C24.4648 553.5 24.875 553.91 24.875 554.375C24.875 554.867 24.4648 555.25 24 555.25C23.5078 555.25 23.125 554.867 23.125 554.375C23.125 553.91 23.5078 553.5 24 553.5ZM24 549.125C24.4648 549.125 24.875 549.535 24.875 550C24.875 550.492 24.4648 550.875 24 550.875C23.5078 550.875 23.125 550.492 23.125 550C23.125 549.535 23.5078 549.125 24 549.125ZM24 546.5C23.5078 546.5 23.125 546.117 23.125 545.625C23.125 545.16 23.5078 544.75 24 544.75C24.4648 544.75 24.875 545.16 24.875 545.625C24.875 546.117 24.4648 546.5 24 546.5Z" fill="#44546F"/>
<mask id="path-41-inside-12_223_5157" fill="white">
<path d="M0 580H60V640H0V580Z"/>
</mask>
<path d="M0 580H60V640H0V580Z" fill="white"/>
<path d="M60 640V639H0V640V641H60V640Z" fill="#F1F2F4" mask="url(#path-41-inside-12_223_5157)"/>
<path d="M24 613.5C24.4648 613.5 24.875 613.91 24.875 614.375C24.875 614.867 24.4648 615.25 24 615.25C23.5078 615.25 23.125 614.867 23.125 614.375C23.125 613.91 23.5078 613.5 24 613.5ZM24 609.125C24.4648 609.125 24.875 609.535 24.875 610C24.875 610.492 24.4648 610.875 24 610.875C23.5078 610.875 23.125 610.492 23.125 610C23.125 609.535 23.5078 609.125 24 609.125ZM24 606.5C23.5078 606.5 23.125 606.117 23.125 605.625C23.125 605.16 23.5078 604.75 24 604.75C24.4648 604.75 24.875 605.16 24.875 605.625C24.875 606.117 24.4648 606.5 24 606.5Z" fill="#44546F"/>
<mask id="path-45-inside-13_223_5157" fill="white">
<path d="M0 640H60V700H0V640Z"/>
</mask>
<path d="M0 640H60V700H0V640Z" fill="white"/>
<path d="M60 700V699H0V700V701H60V700Z" fill="#F1F2F4" mask="url(#path-45-inside-13_223_5157)"/>
<path d="M24 673.5C24.4648 673.5 24.875 673.91 24.875 674.375C24.875 674.867 24.4648 675.25 24 675.25C23.5078 675.25 23.125 674.867 23.125 674.375C23.125 673.91 23.5078 673.5 24 673.5ZM24 669.125C24.4648 669.125 24.875 669.535 24.875 670C24.875 670.492 24.4648 670.875 24 670.875C23.5078 670.875 23.125 670.492 23.125 670C23.125 669.535 23.5078 669.125 24 669.125ZM24 666.5C23.5078 666.5 23.125 666.117 23.125 665.625C23.125 665.16 23.5078 664.75 24 664.75C24.4648 664.75 24.875 665.16 24.875 665.625C24.875 666.117 24.4648 666.5 24 666.5Z" fill="#44546F"/>
<mask id="path-49-inside-14_223_5157" fill="white">
<path d="M0 700H60V760H0V700Z"/>
</mask>
<path d="M0 700H60V760H0V700Z" fill="white"/>
<path d="M60 760V759H0V760V761H60V760Z" fill="#F1F2F4" mask="url(#path-49-inside-14_223_5157)"/>
<path d="M24 733.5C24.4648 733.5 24.875 733.91 24.875 734.375C24.875 734.867 24.4648 735.25 24 735.25C23.5078 735.25 23.125 734.867 23.125 734.375C23.125 733.91 23.5078 733.5 24 733.5ZM24 729.125C24.4648 729.125 24.875 729.535 24.875 730C24.875 730.492 24.4648 730.875 24 730.875C23.5078 730.875 23.125 730.492 23.125 730C23.125 729.535 23.5078 729.125 24 729.125ZM24 726.5C23.5078 726.5 23.125 726.117 23.125 725.625C23.125 725.16 23.5078 724.75 24 724.75C24.4648 724.75 24.875 725.16 24.875 725.625C24.875 726.117 24.4648 726.5 24 726.5Z" fill="#44546F"/>
<mask id="path-53-inside-15_223_5157" fill="white">
<path d="M0 760H60V820H0V760Z"/>
</mask>
<path d="M0 760H60V820H0V760Z" fill="white"/>
<path d="M60 820V819H0V820V821H60V820Z" fill="#F1F2F4" mask="url(#path-53-inside-15_223_5157)"/>
<path d="M24 793.5C24.4648 793.5 24.875 793.91 24.875 794.375C24.875 794.867 24.4648 795.25 24 795.25C23.5078 795.25 23.125 794.867 23.125 794.375C23.125 793.91 23.5078 793.5 24 793.5ZM24 789.125C24.4648 789.125 24.875 789.535 24.875 790C24.875 790.492 24.4648 790.875 24 790.875C23.5078 790.875 23.125 790.492 23.125 790C23.125 789.535 23.5078 789.125 24 789.125ZM24 786.5C23.5078 786.5 23.125 786.117 23.125 785.625C23.125 785.16 23.5078 784.75 24 784.75C24.4648 784.75 24.875 785.16 24.875 785.625C24.875 786.117 24.4648 786.5 24 786.5Z" fill="#44546F"/>
<mask id="path-57-inside-16_223_5157" fill="white">
<path d="M0 820H60V880H0V820Z"/>
</mask>
<path d="M0 820H60V880H0V820Z" fill="white"/>
<path d="M60 880V879H0V880V881H60V880Z" fill="#F1F2F4" mask="url(#path-57-inside-16_223_5157)"/>
<path d="M24 853.5C24.4648 853.5 24.875 853.91 24.875 854.375C24.875 854.867 24.4648 855.25 24 855.25C23.5078 855.25 23.125 854.867 23.125 854.375C23.125 853.91 23.5078 853.5 24 853.5ZM24 849.125C24.4648 849.125 24.875 849.535 24.875 850C24.875 850.492 24.4648 850.875 24 850.875C23.5078 850.875 23.125 850.492 23.125 850C23.125 849.535 23.5078 849.125 24 849.125ZM24 846.5C23.5078 846.5 23.125 846.117 23.125 845.625C23.125 845.16 23.5078 844.75 24 844.75C24.4648 844.75 24.875 845.16 24.875 845.625C24.875 846.117 24.4648 846.5 24 846.5Z" fill="#44546F"/>
<mask id="path-61-inside-17_223_5157" fill="white">
<path d="M0 880H60V940H0V880Z"/>
</mask>
<path d="M0 880H60V940H0V880Z" fill="white"/>
<path d="M60 940V939H0V940V941H60V940Z" fill="#F1F2F4" mask="url(#path-61-inside-17_223_5157)"/>
<path d="M24 913.5C24.4648 913.5 24.875 913.91 24.875 914.375C24.875 914.867 24.4648 915.25 24 915.25C23.5078 915.25 23.125 914.867 23.125 914.375C23.125 913.91 23.5078 913.5 24 913.5ZM24 909.125C24.4648 909.125 24.875 909.535 24.875 910C24.875 910.492 24.4648 910.875 24 910.875C23.5078 910.875 23.125 910.492 23.125 910C23.125 909.535 23.5078 909.125 24 909.125ZM24 906.5C23.5078 906.5 23.125 906.117 23.125 905.625C23.125 905.16 23.5078 904.75 24 904.75C24.4648 904.75 24.875 905.16 24.875 905.625C24.875 906.117 24.4648 906.5 24 906.5Z" fill="#44546F"/>
<mask id="path-65-inside-18_223_5157" fill="white">
<path d="M0 940H60V1000H0V940Z"/>
</mask>
<path d="M0 940H60V1000H0V940Z" fill="white"/>
<path d="M60 1000V999H0V1000V1001H60V1000Z" fill="#F1F2F4" mask="url(#path-65-inside-18_223_5157)"/>
<path d="M24 973.5C24.4648 973.5 24.875 973.91 24.875 974.375C24.875 974.867 24.4648 975.25 24 975.25C23.5078 975.25 23.125 974.867 23.125 974.375C23.125 973.91 23.5078 973.5 24 973.5ZM24 969.125C24.4648 969.125 24.875 969.535 24.875 970C24.875 970.492 24.4648 970.875 24 970.875C23.5078 970.875 23.125 970.492 23.125 970C23.125 969.535 23.5078 969.125 24 969.125ZM24 966.5C23.5078 966.5 23.125 966.117 23.125 965.625C23.125 965.16 23.5078 964.75 24 964.75C24.4648 964.75 24.875 965.16 24.875 965.625C24.875 966.117 24.4648 966.5 24 966.5Z" fill="#44546F"/>
<mask id="path-69-inside-19_223_5157" fill="white">
<path d="M0 1000H60V1060H0V1000Z"/>
</mask>
<path d="M0 1000H60V1060H0V1000Z" fill="white"/>
<path d="M60 1060V1059H0V1060V1061H60V1060Z" fill="#F1F2F4" mask="url(#path-69-inside-19_223_5157)"/>
<path d="M24 1033.5C24.4648 1033.5 24.875 1033.91 24.875 1034.38C24.875 1034.87 24.4648 1035.25 24 1035.25C23.5078 1035.25 23.125 1034.87 23.125 1034.38C23.125 1033.91 23.5078 1033.5 24 1033.5ZM24 1029.12C24.4648 1029.12 24.875 1029.54 24.875 1030C24.875 1030.49 24.4648 1030.88 24 1030.88C23.5078 1030.88 23.125 1030.49 23.125 1030C23.125 1029.54 23.5078 1029.12 24 1029.12ZM24 1026.5C23.5078 1026.5 23.125 1026.12 23.125 1025.62C23.125 1025.16 23.5078 1024.75 24 1024.75C24.4648 1024.75 24.875 1025.16 24.875 1025.62C24.875 1026.12 24.4648 1026.5 24 1026.5Z" fill="#44546F"/>
<mask id="path-73-inside-20_223_5157" fill="white">
<path d="M0 1060H60V1120H0V1060Z"/>
</mask>
<path d="M0 1060H60V1120H0V1060Z" fill="white"/>
<path d="M60 1120V1119H0V1120V1121H60V1120Z" fill="#F1F2F4" mask="url(#path-73-inside-20_223_5157)"/>
<path d="M24 1093.5C24.4648 1093.5 24.875 1093.91 24.875 1094.38C24.875 1094.87 24.4648 1095.25 24 1095.25C23.5078 1095.25 23.125 1094.87 23.125 1094.38C23.125 1093.91 23.5078 1093.5 24 1093.5ZM24 1089.12C24.4648 1089.12 24.875 1089.54 24.875 1090C24.875 1090.49 24.4648 1090.88 24 1090.88C23.5078 1090.88 23.125 1090.49 23.125 1090C23.125 1089.54 23.5078 1089.12 24 1089.12ZM24 1086.5C23.5078 1086.5 23.125 1086.12 23.125 1085.62C23.125 1085.16 23.5078 1084.75 24 1084.75C24.4648 1084.75 24.875 1085.16 24.875 1085.62C24.875 1086.12 24.4648 1086.5 24 1086.5Z" fill="#44546F"/>
<mask id="path-77-inside-21_223_5157" fill="white">
<path d="M0 1120H60V1180H0V1120Z"/>
</mask>
<path d="M0 1120H60V1180H0V1120Z" fill="white"/>
<path d="M60 1180V1179H0V1180V1181H60V1180Z" fill="#F1F2F4" mask="url(#path-77-inside-21_223_5157)"/>
<path d="M24 1153.5C24.4648 1153.5 24.875 1153.91 24.875 1154.38C24.875 1154.87 24.4648 1155.25 24 1155.25C23.5078 1155.25 23.125 1154.87 23.125 1154.38C23.125 1153.91 23.5078 1153.5 24 1153.5ZM24 1149.12C24.4648 1149.12 24.875 1149.54 24.875 1150C24.875 1150.49 24.4648 1150.88 24 1150.88C23.5078 1150.88 23.125 1150.49 23.125 1150C23.125 1149.54 23.5078 1149.12 24 1149.12ZM24 1146.5C23.5078 1146.5 23.125 1146.12 23.125 1145.62C23.125 1145.16 23.5078 1144.75 24 1144.75C24.4648 1144.75 24.875 1145.16 24.875 1145.62C24.875 1146.12 24.4648 1146.5 24 1146.5Z" fill="#44546F"/>
<mask id="path-81-inside-22_223_5157" fill="white">
<path d="M0 1180H60V1240H0V1180Z"/>
</mask>
<path d="M0 1180H60V1240H0V1180Z" fill="white"/>
<path d="M60 1240V1239H0V1240V1241H60V1240Z" fill="#F1F2F4" mask="url(#path-81-inside-22_223_5157)"/>
<path d="M24 1213.5C24.4648 1213.5 24.875 1213.91 24.875 1214.38C24.875 1214.87 24.4648 1215.25 24 1215.25C23.5078 1215.25 23.125 1214.87 23.125 1214.38C23.125 1213.91 23.5078 1213.5 24 1213.5ZM24 1209.12C24.4648 1209.12 24.875 1209.54 24.875 1210C24.875 1210.49 24.4648 1210.88 24 1210.88C23.5078 1210.88 23.125 1210.49 23.125 1210C23.125 1209.54 23.5078 1209.12 24 1209.12ZM24 1206.5C23.5078 1206.5 23.125 1206.12 23.125 1205.62C23.125 1205.16 23.5078 1204.75 24 1204.75C24.4648 1204.75 24.875 1205.16 24.875 1205.62C24.875 1206.12 24.4648 1206.5 24 1206.5Z" fill="#44546F"/>
</g>
<path d="M0 0H60H0ZM60 1240H0H60ZM-1 1240V0H1V1240H-1ZM60 0V1240V0Z" fill="#F1F2F4" mask="url(#path-1-inside-1_223_5157)"/>
<defs>
<clipPath id="clip0_223_5157">
<path d="M0 0H54C57.3137 0 60 2.68629 60 6V1234C60 1237.31 57.3137 1240 54 1240H0V0Z" fill="white"/>
</clipPath>
</defs>
</svg>
