<svg width="92" height="1240" viewBox="0 0 92 1240" fill="none" xmlns="http://www.w3.org/2000/svg">
<g clip-path="url(#clip0_223_5088)">
<mask id="path-1-inside-1_223_5088" fill="white">
<path d="M0 0H86C89.3137 0 92 2.68629 92 6V1234C92 1237.31 89.3137 1240 86 1240H0V0Z"/>
</mask>
<mask id="path-3-inside-2_223_5088" fill="white">
<path d="M0 0H92V40H0V0Z"/>
</mask>
<path d="M0 0H92V40H0V0Z" fill="#F7F8F9"/>
<path d="M92 40V39H0V40V41H92V40Z" fill="#F1F2F4" mask="url(#path-3-inside-2_223_5088)"/>
<mask id="path-5-inside-3_223_5088" fill="white">
<path d="M0 40H92V100H0V40Z"/>
</mask>
<path d="M0 40H92V100H0V40Z" fill="white"/>
<path d="M92 100V99H0V100V101H92V100Z" fill="#F1F2F4" mask="url(#path-5-inside-3_223_5088)"/>
<path d="M30.5352 64.6406C31.1094 65.2422 31.1094 66.1992 30.5352 66.8008L21.9766 75.3594C21.6484 75.6602 21.2656 75.9062 20.8555 76.0156L17.5469 77C17.3828 77.0273 17.2188 77 17.1094 76.8906C17 76.7812 16.9453 76.6172 17 76.4531L17.9844 73.1445C18.0938 72.7344 18.3398 72.3516 18.6406 72.0234L27.1992 63.4648C27.8008 62.8906 28.7578 62.8906 29.3594 63.4648L30.5352 64.6406ZM26.3242 65.5977L28.4023 67.6758L29.9062 66.1992C30.1523 65.9258 30.1523 65.5156 29.9062 65.2695L28.7305 64.0938C28.4844 63.8477 28.0742 63.8477 27.8008 64.0938L26.3242 65.5977ZM25.6953 66.1992L19.2695 72.6523C19.0508 72.8438 18.8867 73.1172 18.8047 73.3906L18.0664 75.9336L20.6094 75.1953C20.8828 75.1133 21.1562 74.9492 21.3477 74.7305L27.7734 68.3047L25.6953 66.1992Z" fill="#44546F"/>
<path d="M56 73.5C56.4648 73.5 56.875 73.9102 56.875 74.375C56.875 74.8672 56.4648 75.25 56 75.25C55.5078 75.25 55.125 74.8672 55.125 74.375C55.125 73.9102 55.5078 73.5 56 73.5ZM56 69.125C56.4648 69.125 56.875 69.5352 56.875 70C56.875 70.4922 56.4648 70.875 56 70.875C55.5078 70.875 55.125 70.4922 55.125 70C55.125 69.5352 55.5078 69.125 56 69.125ZM56 66.5C55.5078 66.5 55.125 66.1172 55.125 65.625C55.125 65.1602 55.5078 64.75 56 64.75C56.4648 64.75 56.875 65.1602 56.875 65.625C56.875 66.1172 56.4648 66.5 56 66.5Z" fill="#44546F"/>
<mask id="path-11-inside-4_223_5088" fill="white">
<path d="M0 100H92V160H0V100Z"/>
</mask>
<path d="M0 100H92V160H0V100Z" fill="white"/>
<path d="M92 160V159H0V160V161H92V160Z" fill="#F1F2F4" mask="url(#path-11-inside-4_223_5088)"/>
<path d="M30.5352 124.641C31.1094 125.242 31.1094 126.199 30.5352 126.801L21.9766 135.359C21.6484 135.66 21.2656 135.906 20.8555 136.016L17.5469 137C17.3828 137.027 17.2188 137 17.1094 136.891C17 136.781 16.9453 136.617 17 136.453L17.9844 133.145C18.0938 132.734 18.3398 132.352 18.6406 132.023L27.1992 123.465C27.8008 122.891 28.7578 122.891 29.3594 123.465L30.5352 124.641ZM26.3242 125.598L28.4023 127.676L29.9062 126.199C30.1523 125.926 30.1523 125.516 29.9062 125.27L28.7305 124.094C28.4844 123.848 28.0742 123.848 27.8008 124.094L26.3242 125.598ZM25.6953 126.199L19.2695 132.652C19.0508 132.844 18.8867 133.117 18.8047 133.391L18.0664 135.934L20.6094 135.195C20.8828 135.113 21.1562 134.949 21.3477 134.73L27.7734 128.305L25.6953 126.199Z" fill="#44546F"/>
<path d="M56 133.5C56.4648 133.5 56.875 133.91 56.875 134.375C56.875 134.867 56.4648 135.25 56 135.25C55.5078 135.25 55.125 134.867 55.125 134.375C55.125 133.91 55.5078 133.5 56 133.5ZM56 129.125C56.4648 129.125 56.875 129.535 56.875 130C56.875 130.492 56.4648 130.875 56 130.875C55.5078 130.875 55.125 130.492 55.125 130C55.125 129.535 55.5078 129.125 56 129.125ZM56 126.5C55.5078 126.5 55.125 126.117 55.125 125.625C55.125 125.16 55.5078 124.75 56 124.75C56.4648 124.75 56.875 125.16 56.875 125.625C56.875 126.117 56.4648 126.5 56 126.5Z" fill="#44546F"/>
<mask id="path-17-inside-5_223_5088" fill="white">
<path d="M0 160H92V220H0V160Z"/>
</mask>
<path d="M0 160H92V220H0V160Z" fill="white"/>
<path d="M92 220V219H0V220V221H92V220Z" fill="#F1F2F4" mask="url(#path-17-inside-5_223_5088)"/>
<path d="M30.5352 184.641C31.1094 185.242 31.1094 186.199 30.5352 186.801L21.9766 195.359C21.6484 195.66 21.2656 195.906 20.8555 196.016L17.5469 197C17.3828 197.027 17.2188 197 17.1094 196.891C17 196.781 16.9453 196.617 17 196.453L17.9844 193.145C18.0938 192.734 18.3398 192.352 18.6406 192.023L27.1992 183.465C27.8008 182.891 28.7578 182.891 29.3594 183.465L30.5352 184.641ZM26.3242 185.598L28.4023 187.676L29.9062 186.199C30.1523 185.926 30.1523 185.516 29.9062 185.27L28.7305 184.094C28.4844 183.848 28.0742 183.848 27.8008 184.094L26.3242 185.598ZM25.6953 186.199L19.2695 192.652C19.0508 192.844 18.8867 193.117 18.8047 193.391L18.0664 195.934L20.6094 195.195C20.8828 195.113 21.1562 194.949 21.3477 194.73L27.7734 188.305L25.6953 186.199Z" fill="#44546F"/>
<path d="M56 193.5C56.4648 193.5 56.875 193.91 56.875 194.375C56.875 194.867 56.4648 195.25 56 195.25C55.5078 195.25 55.125 194.867 55.125 194.375C55.125 193.91 55.5078 193.5 56 193.5ZM56 189.125C56.4648 189.125 56.875 189.535 56.875 190C56.875 190.492 56.4648 190.875 56 190.875C55.5078 190.875 55.125 190.492 55.125 190C55.125 189.535 55.5078 189.125 56 189.125ZM56 186.5C55.5078 186.5 55.125 186.117 55.125 185.625C55.125 185.16 55.5078 184.75 56 184.75C56.4648 184.75 56.875 185.16 56.875 185.625C56.875 186.117 56.4648 186.5 56 186.5Z" fill="#44546F"/>
<mask id="path-23-inside-6_223_5088" fill="white">
<path d="M0 220H92V280H0V220Z"/>
</mask>
<path d="M0 220H92V280H0V220Z" fill="white"/>
<path d="M92 280V279H0V280V281H92V280Z" fill="#F1F2F4" mask="url(#path-23-inside-6_223_5088)"/>
<path d="M30.5352 244.641C31.1094 245.242 31.1094 246.199 30.5352 246.801L21.9766 255.359C21.6484 255.66 21.2656 255.906 20.8555 256.016L17.5469 257C17.3828 257.027 17.2188 257 17.1094 256.891C17 256.781 16.9453 256.617 17 256.453L17.9844 253.145C18.0938 252.734 18.3398 252.352 18.6406 252.023L27.1992 243.465C27.8008 242.891 28.7578 242.891 29.3594 243.465L30.5352 244.641ZM26.3242 245.598L28.4023 247.676L29.9062 246.199C30.1523 245.926 30.1523 245.516 29.9062 245.27L28.7305 244.094C28.4844 243.848 28.0742 243.848 27.8008 244.094L26.3242 245.598ZM25.6953 246.199L19.2695 252.652C19.0508 252.844 18.8867 253.117 18.8047 253.391L18.0664 255.934L20.6094 255.195C20.8828 255.113 21.1562 254.949 21.3477 254.73L27.7734 248.305L25.6953 246.199Z" fill="#44546F"/>
<path d="M56 253.5C56.4648 253.5 56.875 253.91 56.875 254.375C56.875 254.867 56.4648 255.25 56 255.25C55.5078 255.25 55.125 254.867 55.125 254.375C55.125 253.91 55.5078 253.5 56 253.5ZM56 249.125C56.4648 249.125 56.875 249.535 56.875 250C56.875 250.492 56.4648 250.875 56 250.875C55.5078 250.875 55.125 250.492 55.125 250C55.125 249.535 55.5078 249.125 56 249.125ZM56 246.5C55.5078 246.5 55.125 246.117 55.125 245.625C55.125 245.16 55.5078 244.75 56 244.75C56.4648 244.75 56.875 245.16 56.875 245.625C56.875 246.117 56.4648 246.5 56 246.5Z" fill="#44546F"/>
<mask id="path-29-inside-7_223_5088" fill="white">
<path d="M0 280H92V340H0V280Z"/>
</mask>
<path d="M0 280H92V340H0V280Z" fill="white"/>
<path d="M92 340V339H0V340V341H92V340Z" fill="#F1F2F4" mask="url(#path-29-inside-7_223_5088)"/>
<path d="M30.5352 304.641C31.1094 305.242 31.1094 306.199 30.5352 306.801L21.9766 315.359C21.6484 315.66 21.2656 315.906 20.8555 316.016L17.5469 317C17.3828 317.027 17.2188 317 17.1094 316.891C17 316.781 16.9453 316.617 17 316.453L17.9844 313.145C18.0938 312.734 18.3398 312.352 18.6406 312.023L27.1992 303.465C27.8008 302.891 28.7578 302.891 29.3594 303.465L30.5352 304.641ZM26.3242 305.598L28.4023 307.676L29.9062 306.199C30.1523 305.926 30.1523 305.516 29.9062 305.27L28.7305 304.094C28.4844 303.848 28.0742 303.848 27.8008 304.094L26.3242 305.598ZM25.6953 306.199L19.2695 312.652C19.0508 312.844 18.8867 313.117 18.8047 313.391L18.0664 315.934L20.6094 315.195C20.8828 315.113 21.1562 314.949 21.3477 314.73L27.7734 308.305L25.6953 306.199Z" fill="#44546F"/>
<path d="M56 313.5C56.4648 313.5 56.875 313.91 56.875 314.375C56.875 314.867 56.4648 315.25 56 315.25C55.5078 315.25 55.125 314.867 55.125 314.375C55.125 313.91 55.5078 313.5 56 313.5ZM56 309.125C56.4648 309.125 56.875 309.535 56.875 310C56.875 310.492 56.4648 310.875 56 310.875C55.5078 310.875 55.125 310.492 55.125 310C55.125 309.535 55.5078 309.125 56 309.125ZM56 306.5C55.5078 306.5 55.125 306.117 55.125 305.625C55.125 305.16 55.5078 304.75 56 304.75C56.4648 304.75 56.875 305.16 56.875 305.625C56.875 306.117 56.4648 306.5 56 306.5Z" fill="#44546F"/>
<mask id="path-35-inside-8_223_5088" fill="white">
<path d="M0 340H92V400H0V340Z"/>
</mask>
<path d="M0 340H92V400H0V340Z" fill="white"/>
<path d="M92 400V399H0V400V401H92V400Z" fill="#F1F2F4" mask="url(#path-35-inside-8_223_5088)"/>
<path d="M30.5352 364.641C31.1094 365.242 31.1094 366.199 30.5352 366.801L21.9766 375.359C21.6484 375.66 21.2656 375.906 20.8555 376.016L17.5469 377C17.3828 377.027 17.2188 377 17.1094 376.891C17 376.781 16.9453 376.617 17 376.453L17.9844 373.145C18.0938 372.734 18.3398 372.352 18.6406 372.023L27.1992 363.465C27.8008 362.891 28.7578 362.891 29.3594 363.465L30.5352 364.641ZM26.3242 365.598L28.4023 367.676L29.9062 366.199C30.1523 365.926 30.1523 365.516 29.9062 365.27L28.7305 364.094C28.4844 363.848 28.0742 363.848 27.8008 364.094L26.3242 365.598ZM25.6953 366.199L19.2695 372.652C19.0508 372.844 18.8867 373.117 18.8047 373.391L18.0664 375.934L20.6094 375.195C20.8828 375.113 21.1562 374.949 21.3477 374.73L27.7734 368.305L25.6953 366.199Z" fill="#44546F"/>
<path d="M56 373.5C56.4648 373.5 56.875 373.91 56.875 374.375C56.875 374.867 56.4648 375.25 56 375.25C55.5078 375.25 55.125 374.867 55.125 374.375C55.125 373.91 55.5078 373.5 56 373.5ZM56 369.125C56.4648 369.125 56.875 369.535 56.875 370C56.875 370.492 56.4648 370.875 56 370.875C55.5078 370.875 55.125 370.492 55.125 370C55.125 369.535 55.5078 369.125 56 369.125ZM56 366.5C55.5078 366.5 55.125 366.117 55.125 365.625C55.125 365.16 55.5078 364.75 56 364.75C56.4648 364.75 56.875 365.16 56.875 365.625C56.875 366.117 56.4648 366.5 56 366.5Z" fill="#44546F"/>
<mask id="path-41-inside-9_223_5088" fill="white">
<path d="M0 400H92V460H0V400Z"/>
</mask>
<path d="M0 400H92V460H0V400Z" fill="white"/>
<path d="M92 460V459H0V460V461H92V460Z" fill="#F1F2F4" mask="url(#path-41-inside-9_223_5088)"/>
<path d="M30.5352 424.641C31.1094 425.242 31.1094 426.199 30.5352 426.801L21.9766 435.359C21.6484 435.66 21.2656 435.906 20.8555 436.016L17.5469 437C17.3828 437.027 17.2188 437 17.1094 436.891C17 436.781 16.9453 436.617 17 436.453L17.9844 433.145C18.0938 432.734 18.3398 432.352 18.6406 432.023L27.1992 423.465C27.8008 422.891 28.7578 422.891 29.3594 423.465L30.5352 424.641ZM26.3242 425.598L28.4023 427.676L29.9062 426.199C30.1523 425.926 30.1523 425.516 29.9062 425.27L28.7305 424.094C28.4844 423.848 28.0742 423.848 27.8008 424.094L26.3242 425.598ZM25.6953 426.199L19.2695 432.652C19.0508 432.844 18.8867 433.117 18.8047 433.391L18.0664 435.934L20.6094 435.195C20.8828 435.113 21.1562 434.949 21.3477 434.73L27.7734 428.305L25.6953 426.199Z" fill="#44546F"/>
<path d="M56 433.5C56.4648 433.5 56.875 433.91 56.875 434.375C56.875 434.867 56.4648 435.25 56 435.25C55.5078 435.25 55.125 434.867 55.125 434.375C55.125 433.91 55.5078 433.5 56 433.5ZM56 429.125C56.4648 429.125 56.875 429.535 56.875 430C56.875 430.492 56.4648 430.875 56 430.875C55.5078 430.875 55.125 430.492 55.125 430C55.125 429.535 55.5078 429.125 56 429.125ZM56 426.5C55.5078 426.5 55.125 426.117 55.125 425.625C55.125 425.16 55.5078 424.75 56 424.75C56.4648 424.75 56.875 425.16 56.875 425.625C56.875 426.117 56.4648 426.5 56 426.5Z" fill="#44546F"/>
<mask id="path-47-inside-10_223_5088" fill="white">
<path d="M0 460H92V520H0V460Z"/>
</mask>
<path d="M0 460H92V520H0V460Z" fill="white"/>
<path d="M92 520V519H0V520V521H92V520Z" fill="#F1F2F4" mask="url(#path-47-inside-10_223_5088)"/>
<path d="M30.5352 484.641C31.1094 485.242 31.1094 486.199 30.5352 486.801L21.9766 495.359C21.6484 495.66 21.2656 495.906 20.8555 496.016L17.5469 497C17.3828 497.027 17.2188 497 17.1094 496.891C17 496.781 16.9453 496.617 17 496.453L17.9844 493.145C18.0938 492.734 18.3398 492.352 18.6406 492.023L27.1992 483.465C27.8008 482.891 28.7578 482.891 29.3594 483.465L30.5352 484.641ZM26.3242 485.598L28.4023 487.676L29.9062 486.199C30.1523 485.926 30.1523 485.516 29.9062 485.27L28.7305 484.094C28.4844 483.848 28.0742 483.848 27.8008 484.094L26.3242 485.598ZM25.6953 486.199L19.2695 492.652C19.0508 492.844 18.8867 493.117 18.8047 493.391L18.0664 495.934L20.6094 495.195C20.8828 495.113 21.1562 494.949 21.3477 494.73L27.7734 488.305L25.6953 486.199Z" fill="#44546F"/>
<path d="M56 493.5C56.4648 493.5 56.875 493.91 56.875 494.375C56.875 494.867 56.4648 495.25 56 495.25C55.5078 495.25 55.125 494.867 55.125 494.375C55.125 493.91 55.5078 493.5 56 493.5ZM56 489.125C56.4648 489.125 56.875 489.535 56.875 490C56.875 490.492 56.4648 490.875 56 490.875C55.5078 490.875 55.125 490.492 55.125 490C55.125 489.535 55.5078 489.125 56 489.125ZM56 486.5C55.5078 486.5 55.125 486.117 55.125 485.625C55.125 485.16 55.5078 484.75 56 484.75C56.4648 484.75 56.875 485.16 56.875 485.625C56.875 486.117 56.4648 486.5 56 486.5Z" fill="#44546F"/>
<mask id="path-53-inside-11_223_5088" fill="white">
<path d="M0 520H92V580H0V520Z"/>
</mask>
<path d="M0 520H92V580H0V520Z" fill="white"/>
<path d="M92 580V579H0V580V581H92V580Z" fill="#F1F2F4" mask="url(#path-53-inside-11_223_5088)"/>
<path d="M30.5352 544.641C31.1094 545.242 31.1094 546.199 30.5352 546.801L21.9766 555.359C21.6484 555.66 21.2656 555.906 20.8555 556.016L17.5469 557C17.3828 557.027 17.2188 557 17.1094 556.891C17 556.781 16.9453 556.617 17 556.453L17.9844 553.145C18.0938 552.734 18.3398 552.352 18.6406 552.023L27.1992 543.465C27.8008 542.891 28.7578 542.891 29.3594 543.465L30.5352 544.641ZM26.3242 545.598L28.4023 547.676L29.9062 546.199C30.1523 545.926 30.1523 545.516 29.9062 545.27L28.7305 544.094C28.4844 543.848 28.0742 543.848 27.8008 544.094L26.3242 545.598ZM25.6953 546.199L19.2695 552.652C19.0508 552.844 18.8867 553.117 18.8047 553.391L18.0664 555.934L20.6094 555.195C20.8828 555.113 21.1562 554.949 21.3477 554.73L27.7734 548.305L25.6953 546.199Z" fill="#44546F"/>
<path d="M56 553.5C56.4648 553.5 56.875 553.91 56.875 554.375C56.875 554.867 56.4648 555.25 56 555.25C55.5078 555.25 55.125 554.867 55.125 554.375C55.125 553.91 55.5078 553.5 56 553.5ZM56 549.125C56.4648 549.125 56.875 549.535 56.875 550C56.875 550.492 56.4648 550.875 56 550.875C55.5078 550.875 55.125 550.492 55.125 550C55.125 549.535 55.5078 549.125 56 549.125ZM56 546.5C55.5078 546.5 55.125 546.117 55.125 545.625C55.125 545.16 55.5078 544.75 56 544.75C56.4648 544.75 56.875 545.16 56.875 545.625C56.875 546.117 56.4648 546.5 56 546.5Z" fill="#44546F"/>
<mask id="path-59-inside-12_223_5088" fill="white">
<path d="M0 580H92V640H0V580Z"/>
</mask>
<path d="M0 580H92V640H0V580Z" fill="white"/>
<path d="M92 640V639H0V640V641H92V640Z" fill="#F1F2F4" mask="url(#path-59-inside-12_223_5088)"/>
<path d="M30.5352 604.641C31.1094 605.242 31.1094 606.199 30.5352 606.801L21.9766 615.359C21.6484 615.66 21.2656 615.906 20.8555 616.016L17.5469 617C17.3828 617.027 17.2188 617 17.1094 616.891C17 616.781 16.9453 616.617 17 616.453L17.9844 613.145C18.0938 612.734 18.3398 612.352 18.6406 612.023L27.1992 603.465C27.8008 602.891 28.7578 602.891 29.3594 603.465L30.5352 604.641ZM26.3242 605.598L28.4023 607.676L29.9062 606.199C30.1523 605.926 30.1523 605.516 29.9062 605.27L28.7305 604.094C28.4844 603.848 28.0742 603.848 27.8008 604.094L26.3242 605.598ZM25.6953 606.199L19.2695 612.652C19.0508 612.844 18.8867 613.117 18.8047 613.391L18.0664 615.934L20.6094 615.195C20.8828 615.113 21.1562 614.949 21.3477 614.73L27.7734 608.305L25.6953 606.199Z" fill="#44546F"/>
<path d="M56 613.5C56.4648 613.5 56.875 613.91 56.875 614.375C56.875 614.867 56.4648 615.25 56 615.25C55.5078 615.25 55.125 614.867 55.125 614.375C55.125 613.91 55.5078 613.5 56 613.5ZM56 609.125C56.4648 609.125 56.875 609.535 56.875 610C56.875 610.492 56.4648 610.875 56 610.875C55.5078 610.875 55.125 610.492 55.125 610C55.125 609.535 55.5078 609.125 56 609.125ZM56 606.5C55.5078 606.5 55.125 606.117 55.125 605.625C55.125 605.16 55.5078 604.75 56 604.75C56.4648 604.75 56.875 605.16 56.875 605.625C56.875 606.117 56.4648 606.5 56 606.5Z" fill="#44546F"/>
<mask id="path-65-inside-13_223_5088" fill="white">
<path d="M0 640H92V700H0V640Z"/>
</mask>
<path d="M0 640H92V700H0V640Z" fill="white"/>
<path d="M92 700V699H0V700V701H92V700Z" fill="#F1F2F4" mask="url(#path-65-inside-13_223_5088)"/>
<path d="M30.5352 664.641C31.1094 665.242 31.1094 666.199 30.5352 666.801L21.9766 675.359C21.6484 675.66 21.2656 675.906 20.8555 676.016L17.5469 677C17.3828 677.027 17.2188 677 17.1094 676.891C17 676.781 16.9453 676.617 17 676.453L17.9844 673.145C18.0938 672.734 18.3398 672.352 18.6406 672.023L27.1992 663.465C27.8008 662.891 28.7578 662.891 29.3594 663.465L30.5352 664.641ZM26.3242 665.598L28.4023 667.676L29.9062 666.199C30.1523 665.926 30.1523 665.516 29.9062 665.27L28.7305 664.094C28.4844 663.848 28.0742 663.848 27.8008 664.094L26.3242 665.598ZM25.6953 666.199L19.2695 672.652C19.0508 672.844 18.8867 673.117 18.8047 673.391L18.0664 675.934L20.6094 675.195C20.8828 675.113 21.1562 674.949 21.3477 674.73L27.7734 668.305L25.6953 666.199Z" fill="#44546F"/>
<path d="M56 673.5C56.4648 673.5 56.875 673.91 56.875 674.375C56.875 674.867 56.4648 675.25 56 675.25C55.5078 675.25 55.125 674.867 55.125 674.375C55.125 673.91 55.5078 673.5 56 673.5ZM56 669.125C56.4648 669.125 56.875 669.535 56.875 670C56.875 670.492 56.4648 670.875 56 670.875C55.5078 670.875 55.125 670.492 55.125 670C55.125 669.535 55.5078 669.125 56 669.125ZM56 666.5C55.5078 666.5 55.125 666.117 55.125 665.625C55.125 665.16 55.5078 664.75 56 664.75C56.4648 664.75 56.875 665.16 56.875 665.625C56.875 666.117 56.4648 666.5 56 666.5Z" fill="#44546F"/>
<mask id="path-71-inside-14_223_5088" fill="white">
<path d="M0 700H92V760H0V700Z"/>
</mask>
<path d="M0 700H92V760H0V700Z" fill="white"/>
<path d="M92 760V759H0V760V761H92V760Z" fill="#F1F2F4" mask="url(#path-71-inside-14_223_5088)"/>
<path d="M30.5352 724.641C31.1094 725.242 31.1094 726.199 30.5352 726.801L21.9766 735.359C21.6484 735.66 21.2656 735.906 20.8555 736.016L17.5469 737C17.3828 737.027 17.2188 737 17.1094 736.891C17 736.781 16.9453 736.617 17 736.453L17.9844 733.145C18.0938 732.734 18.3398 732.352 18.6406 732.023L27.1992 723.465C27.8008 722.891 28.7578 722.891 29.3594 723.465L30.5352 724.641ZM26.3242 725.598L28.4023 727.676L29.9062 726.199C30.1523 725.926 30.1523 725.516 29.9062 725.27L28.7305 724.094C28.4844 723.848 28.0742 723.848 27.8008 724.094L26.3242 725.598ZM25.6953 726.199L19.2695 732.652C19.0508 732.844 18.8867 733.117 18.8047 733.391L18.0664 735.934L20.6094 735.195C20.8828 735.113 21.1562 734.949 21.3477 734.73L27.7734 728.305L25.6953 726.199Z" fill="#44546F"/>
<path d="M56 733.5C56.4648 733.5 56.875 733.91 56.875 734.375C56.875 734.867 56.4648 735.25 56 735.25C55.5078 735.25 55.125 734.867 55.125 734.375C55.125 733.91 55.5078 733.5 56 733.5ZM56 729.125C56.4648 729.125 56.875 729.535 56.875 730C56.875 730.492 56.4648 730.875 56 730.875C55.5078 730.875 55.125 730.492 55.125 730C55.125 729.535 55.5078 729.125 56 729.125ZM56 726.5C55.5078 726.5 55.125 726.117 55.125 725.625C55.125 725.16 55.5078 724.75 56 724.75C56.4648 724.75 56.875 725.16 56.875 725.625C56.875 726.117 56.4648 726.5 56 726.5Z" fill="#44546F"/>
<mask id="path-77-inside-15_223_5088" fill="white">
<path d="M0 760H92V820H0V760Z"/>
</mask>
<path d="M0 760H92V820H0V760Z" fill="white"/>
<path d="M92 820V819H0V820V821H92V820Z" fill="#F1F2F4" mask="url(#path-77-inside-15_223_5088)"/>
<path d="M30.5352 784.641C31.1094 785.242 31.1094 786.199 30.5352 786.801L21.9766 795.359C21.6484 795.66 21.2656 795.906 20.8555 796.016L17.5469 797C17.3828 797.027 17.2188 797 17.1094 796.891C17 796.781 16.9453 796.617 17 796.453L17.9844 793.145C18.0938 792.734 18.3398 792.352 18.6406 792.023L27.1992 783.465C27.8008 782.891 28.7578 782.891 29.3594 783.465L30.5352 784.641ZM26.3242 785.598L28.4023 787.676L29.9062 786.199C30.1523 785.926 30.1523 785.516 29.9062 785.27L28.7305 784.094C28.4844 783.848 28.0742 783.848 27.8008 784.094L26.3242 785.598ZM25.6953 786.199L19.2695 792.652C19.0508 792.844 18.8867 793.117 18.8047 793.391L18.0664 795.934L20.6094 795.195C20.8828 795.113 21.1562 794.949 21.3477 794.73L27.7734 788.305L25.6953 786.199Z" fill="#44546F"/>
<path d="M56 793.5C56.4648 793.5 56.875 793.91 56.875 794.375C56.875 794.867 56.4648 795.25 56 795.25C55.5078 795.25 55.125 794.867 55.125 794.375C55.125 793.91 55.5078 793.5 56 793.5ZM56 789.125C56.4648 789.125 56.875 789.535 56.875 790C56.875 790.492 56.4648 790.875 56 790.875C55.5078 790.875 55.125 790.492 55.125 790C55.125 789.535 55.5078 789.125 56 789.125ZM56 786.5C55.5078 786.5 55.125 786.117 55.125 785.625C55.125 785.16 55.5078 784.75 56 784.75C56.4648 784.75 56.875 785.16 56.875 785.625C56.875 786.117 56.4648 786.5 56 786.5Z" fill="#44546F"/>
<mask id="path-83-inside-16_223_5088" fill="white">
<path d="M0 820H92V880H0V820Z"/>
</mask>
<path d="M0 820H92V880H0V820Z" fill="white"/>
<path d="M92 880V879H0V880V881H92V880Z" fill="#F1F2F4" mask="url(#path-83-inside-16_223_5088)"/>
<path d="M30.5352 844.641C31.1094 845.242 31.1094 846.199 30.5352 846.801L21.9766 855.359C21.6484 855.66 21.2656 855.906 20.8555 856.016L17.5469 857C17.3828 857.027 17.2188 857 17.1094 856.891C17 856.781 16.9453 856.617 17 856.453L17.9844 853.145C18.0938 852.734 18.3398 852.352 18.6406 852.023L27.1992 843.465C27.8008 842.891 28.7578 842.891 29.3594 843.465L30.5352 844.641ZM26.3242 845.598L28.4023 847.676L29.9062 846.199C30.1523 845.926 30.1523 845.516 29.9062 845.27L28.7305 844.094C28.4844 843.848 28.0742 843.848 27.8008 844.094L26.3242 845.598ZM25.6953 846.199L19.2695 852.652C19.0508 852.844 18.8867 853.117 18.8047 853.391L18.0664 855.934L20.6094 855.195C20.8828 855.113 21.1562 854.949 21.3477 854.73L27.7734 848.305L25.6953 846.199Z" fill="#44546F"/>
<path d="M56 853.5C56.4648 853.5 56.875 853.91 56.875 854.375C56.875 854.867 56.4648 855.25 56 855.25C55.5078 855.25 55.125 854.867 55.125 854.375C55.125 853.91 55.5078 853.5 56 853.5ZM56 849.125C56.4648 849.125 56.875 849.535 56.875 850C56.875 850.492 56.4648 850.875 56 850.875C55.5078 850.875 55.125 850.492 55.125 850C55.125 849.535 55.5078 849.125 56 849.125ZM56 846.5C55.5078 846.5 55.125 846.117 55.125 845.625C55.125 845.16 55.5078 844.75 56 844.75C56.4648 844.75 56.875 845.16 56.875 845.625C56.875 846.117 56.4648 846.5 56 846.5Z" fill="#44546F"/>
<mask id="path-89-inside-17_223_5088" fill="white">
<path d="M0 880H92V940H0V880Z"/>
</mask>
<path d="M0 880H92V940H0V880Z" fill="white"/>
<path d="M92 940V939H0V940V941H92V940Z" fill="#F1F2F4" mask="url(#path-89-inside-17_223_5088)"/>
<path d="M30.5352 904.641C31.1094 905.242 31.1094 906.199 30.5352 906.801L21.9766 915.359C21.6484 915.66 21.2656 915.906 20.8555 916.016L17.5469 917C17.3828 917.027 17.2188 917 17.1094 916.891C17 916.781 16.9453 916.617 17 916.453L17.9844 913.145C18.0938 912.734 18.3398 912.352 18.6406 912.023L27.1992 903.465C27.8008 902.891 28.7578 902.891 29.3594 903.465L30.5352 904.641ZM26.3242 905.598L28.4023 907.676L29.9062 906.199C30.1523 905.926 30.1523 905.516 29.9062 905.27L28.7305 904.094C28.4844 903.848 28.0742 903.848 27.8008 904.094L26.3242 905.598ZM25.6953 906.199L19.2695 912.652C19.0508 912.844 18.8867 913.117 18.8047 913.391L18.0664 915.934L20.6094 915.195C20.8828 915.113 21.1562 914.949 21.3477 914.73L27.7734 908.305L25.6953 906.199Z" fill="#44546F"/>
<path d="M56 913.5C56.4648 913.5 56.875 913.91 56.875 914.375C56.875 914.867 56.4648 915.25 56 915.25C55.5078 915.25 55.125 914.867 55.125 914.375C55.125 913.91 55.5078 913.5 56 913.5ZM56 909.125C56.4648 909.125 56.875 909.535 56.875 910C56.875 910.492 56.4648 910.875 56 910.875C55.5078 910.875 55.125 910.492 55.125 910C55.125 909.535 55.5078 909.125 56 909.125ZM56 906.5C55.5078 906.5 55.125 906.117 55.125 905.625C55.125 905.16 55.5078 904.75 56 904.75C56.4648 904.75 56.875 905.16 56.875 905.625C56.875 906.117 56.4648 906.5 56 906.5Z" fill="#44546F"/>
<mask id="path-95-inside-18_223_5088" fill="white">
<path d="M0 940H92V1000H0V940Z"/>
</mask>
<path d="M0 940H92V1000H0V940Z" fill="white"/>
<path d="M92 1000V999H0V1000V1001H92V1000Z" fill="#F1F2F4" mask="url(#path-95-inside-18_223_5088)"/>
<path d="M30.5352 964.641C31.1094 965.242 31.1094 966.199 30.5352 966.801L21.9766 975.359C21.6484 975.66 21.2656 975.906 20.8555 976.016L17.5469 977C17.3828 977.027 17.2188 977 17.1094 976.891C17 976.781 16.9453 976.617 17 976.453L17.9844 973.145C18.0938 972.734 18.3398 972.352 18.6406 972.023L27.1992 963.465C27.8008 962.891 28.7578 962.891 29.3594 963.465L30.5352 964.641ZM26.3242 965.598L28.4023 967.676L29.9062 966.199C30.1523 965.926 30.1523 965.516 29.9062 965.27L28.7305 964.094C28.4844 963.848 28.0742 963.848 27.8008 964.094L26.3242 965.598ZM25.6953 966.199L19.2695 972.652C19.0508 972.844 18.8867 973.117 18.8047 973.391L18.0664 975.934L20.6094 975.195C20.8828 975.113 21.1562 974.949 21.3477 974.73L27.7734 968.305L25.6953 966.199Z" fill="#44546F"/>
<path d="M56 973.5C56.4648 973.5 56.875 973.91 56.875 974.375C56.875 974.867 56.4648 975.25 56 975.25C55.5078 975.25 55.125 974.867 55.125 974.375C55.125 973.91 55.5078 973.5 56 973.5ZM56 969.125C56.4648 969.125 56.875 969.535 56.875 970C56.875 970.492 56.4648 970.875 56 970.875C55.5078 970.875 55.125 970.492 55.125 970C55.125 969.535 55.5078 969.125 56 969.125ZM56 966.5C55.5078 966.5 55.125 966.117 55.125 965.625C55.125 965.16 55.5078 964.75 56 964.75C56.4648 964.75 56.875 965.16 56.875 965.625C56.875 966.117 56.4648 966.5 56 966.5Z" fill="#44546F"/>
<mask id="path-101-inside-19_223_5088" fill="white">
<path d="M0 1000H92V1060H0V1000Z"/>
</mask>
<path d="M0 1000H92V1060H0V1000Z" fill="white"/>
<path d="M92 1060V1059H0V1060V1061H92V1060Z" fill="#F1F2F4" mask="url(#path-101-inside-19_223_5088)"/>
<path d="M30.5352 1024.64C31.1094 1025.24 31.1094 1026.2 30.5352 1026.8L21.9766 1035.36C21.6484 1035.66 21.2656 1035.91 20.8555 1036.02L17.5469 1037C17.3828 1037.03 17.2188 1037 17.1094 1036.89C17 1036.78 16.9453 1036.62 17 1036.45L17.9844 1033.14C18.0938 1032.73 18.3398 1032.35 18.6406 1032.02L27.1992 1023.46C27.8008 1022.89 28.7578 1022.89 29.3594 1023.46L30.5352 1024.64ZM26.3242 1025.6L28.4023 1027.68L29.9062 1026.2C30.1523 1025.93 30.1523 1025.52 29.9062 1025.27L28.7305 1024.09C28.4844 1023.85 28.0742 1023.85 27.8008 1024.09L26.3242 1025.6ZM25.6953 1026.2L19.2695 1032.65C19.0508 1032.84 18.8867 1033.12 18.8047 1033.39L18.0664 1035.93L20.6094 1035.2C20.8828 1035.11 21.1562 1034.95 21.3477 1034.73L27.7734 1028.3L25.6953 1026.2Z" fill="#44546F"/>
<path d="M56 1033.5C56.4648 1033.5 56.875 1033.91 56.875 1034.38C56.875 1034.87 56.4648 1035.25 56 1035.25C55.5078 1035.25 55.125 1034.87 55.125 1034.38C55.125 1033.91 55.5078 1033.5 56 1033.5ZM56 1029.12C56.4648 1029.12 56.875 1029.54 56.875 1030C56.875 1030.49 56.4648 1030.88 56 1030.88C55.5078 1030.88 55.125 1030.49 55.125 1030C55.125 1029.54 55.5078 1029.12 56 1029.12ZM56 1026.5C55.5078 1026.5 55.125 1026.12 55.125 1025.62C55.125 1025.16 55.5078 1024.75 56 1024.75C56.4648 1024.75 56.875 1025.16 56.875 1025.62C56.875 1026.12 56.4648 1026.5 56 1026.5Z" fill="#44546F"/>
<mask id="path-107-inside-20_223_5088" fill="white">
<path d="M0 1060H92V1120H0V1060Z"/>
</mask>
<path d="M0 1060H92V1120H0V1060Z" fill="white"/>
<path d="M92 1120V1119H0V1120V1121H92V1120Z" fill="#F1F2F4" mask="url(#path-107-inside-20_223_5088)"/>
<path d="M30.5352 1084.64C31.1094 1085.24 31.1094 1086.2 30.5352 1086.8L21.9766 1095.36C21.6484 1095.66 21.2656 1095.91 20.8555 1096.02L17.5469 1097C17.3828 1097.03 17.2188 1097 17.1094 1096.89C17 1096.78 16.9453 1096.62 17 1096.45L17.9844 1093.14C18.0938 1092.73 18.3398 1092.35 18.6406 1092.02L27.1992 1083.46C27.8008 1082.89 28.7578 1082.89 29.3594 1083.46L30.5352 1084.64ZM26.3242 1085.6L28.4023 1087.68L29.9062 1086.2C30.1523 1085.93 30.1523 1085.52 29.9062 1085.27L28.7305 1084.09C28.4844 1083.85 28.0742 1083.85 27.8008 1084.09L26.3242 1085.6ZM25.6953 1086.2L19.2695 1092.65C19.0508 1092.84 18.8867 1093.12 18.8047 1093.39L18.0664 1095.93L20.6094 1095.2C20.8828 1095.11 21.1562 1094.95 21.3477 1094.73L27.7734 1088.3L25.6953 1086.2Z" fill="#44546F"/>
<path d="M56 1093.5C56.4648 1093.5 56.875 1093.91 56.875 1094.38C56.875 1094.87 56.4648 1095.25 56 1095.25C55.5078 1095.25 55.125 1094.87 55.125 1094.38C55.125 1093.91 55.5078 1093.5 56 1093.5ZM56 1089.12C56.4648 1089.12 56.875 1089.54 56.875 1090C56.875 1090.49 56.4648 1090.88 56 1090.88C55.5078 1090.88 55.125 1090.49 55.125 1090C55.125 1089.54 55.5078 1089.12 56 1089.12ZM56 1086.5C55.5078 1086.5 55.125 1086.12 55.125 1085.62C55.125 1085.16 55.5078 1084.75 56 1084.75C56.4648 1084.75 56.875 1085.16 56.875 1085.62C56.875 1086.12 56.4648 1086.5 56 1086.5Z" fill="#44546F"/>
<mask id="path-113-inside-21_223_5088" fill="white">
<path d="M0 1120H92V1180H0V1120Z"/>
</mask>
<path d="M0 1120H92V1180H0V1120Z" fill="white"/>
<path d="M92 1180V1179H0V1180V1181H92V1180Z" fill="#F1F2F4" mask="url(#path-113-inside-21_223_5088)"/>
<path d="M30.5352 1144.64C31.1094 1145.24 31.1094 1146.2 30.5352 1146.8L21.9766 1155.36C21.6484 1155.66 21.2656 1155.91 20.8555 1156.02L17.5469 1157C17.3828 1157.03 17.2188 1157 17.1094 1156.89C17 1156.78 16.9453 1156.62 17 1156.45L17.9844 1153.14C18.0938 1152.73 18.3398 1152.35 18.6406 1152.02L27.1992 1143.46C27.8008 1142.89 28.7578 1142.89 29.3594 1143.46L30.5352 1144.64ZM26.3242 1145.6L28.4023 1147.68L29.9062 1146.2C30.1523 1145.93 30.1523 1145.52 29.9062 1145.27L28.7305 1144.09C28.4844 1143.85 28.0742 1143.85 27.8008 1144.09L26.3242 1145.6ZM25.6953 1146.2L19.2695 1152.65C19.0508 1152.84 18.8867 1153.12 18.8047 1153.39L18.0664 1155.93L20.6094 1155.2C20.8828 1155.11 21.1562 1154.95 21.3477 1154.73L27.7734 1148.3L25.6953 1146.2Z" fill="#44546F"/>
<path d="M56 1153.5C56.4648 1153.5 56.875 1153.91 56.875 1154.38C56.875 1154.87 56.4648 1155.25 56 1155.25C55.5078 1155.25 55.125 1154.87 55.125 1154.38C55.125 1153.91 55.5078 1153.5 56 1153.5ZM56 1149.12C56.4648 1149.12 56.875 1149.54 56.875 1150C56.875 1150.49 56.4648 1150.88 56 1150.88C55.5078 1150.88 55.125 1150.49 55.125 1150C55.125 1149.54 55.5078 1149.12 56 1149.12ZM56 1146.5C55.5078 1146.5 55.125 1146.12 55.125 1145.62C55.125 1145.16 55.5078 1144.75 56 1144.75C56.4648 1144.75 56.875 1145.16 56.875 1145.62C56.875 1146.12 56.4648 1146.5 56 1146.5Z" fill="#44546F"/>
<mask id="path-119-inside-22_223_5088" fill="white">
<path d="M0 1180H92V1240H0V1180Z"/>
</mask>
<path d="M0 1180H92V1240H0V1180Z" fill="white"/>
<path d="M92 1240V1239H0V1240V1241H92V1240Z" fill="#F1F2F4" mask="url(#path-119-inside-22_223_5088)"/>
<path d="M30.5352 1204.64C31.1094 1205.24 31.1094 1206.2 30.5352 1206.8L21.9766 1215.36C21.6484 1215.66 21.2656 1215.91 20.8555 1216.02L17.5469 1217C17.3828 1217.03 17.2188 1217 17.1094 1216.89C17 1216.78 16.9453 1216.62 17 1216.45L17.9844 1213.14C18.0938 1212.73 18.3398 1212.35 18.6406 1212.02L27.1992 1203.46C27.8008 1202.89 28.7578 1202.89 29.3594 1203.46L30.5352 1204.64ZM26.3242 1205.6L28.4023 1207.68L29.9062 1206.2C30.1523 1205.93 30.1523 1205.52 29.9062 1205.27L28.7305 1204.09C28.4844 1203.85 28.0742 1203.85 27.8008 1204.09L26.3242 1205.6ZM25.6953 1206.2L19.2695 1212.65C19.0508 1212.84 18.8867 1213.12 18.8047 1213.39L18.0664 1215.93L20.6094 1215.2C20.8828 1215.11 21.1562 1214.95 21.3477 1214.73L27.7734 1208.3L25.6953 1206.2Z" fill="#44546F"/>
<path d="M56 1213.5C56.4648 1213.5 56.875 1213.91 56.875 1214.38C56.875 1214.87 56.4648 1215.25 56 1215.25C55.5078 1215.25 55.125 1214.87 55.125 1214.38C55.125 1213.91 55.5078 1213.5 56 1213.5ZM56 1209.12C56.4648 1209.12 56.875 1209.54 56.875 1210C56.875 1210.49 56.4648 1210.88 56 1210.88C55.5078 1210.88 55.125 1210.49 55.125 1210C55.125 1209.54 55.5078 1209.12 56 1209.12ZM56 1206.5C55.5078 1206.5 55.125 1206.12 55.125 1205.62C55.125 1205.16 55.5078 1204.75 56 1204.75C56.4648 1204.75 56.875 1205.16 56.875 1205.62C56.875 1206.12 56.4648 1206.5 56 1206.5Z" fill="#44546F"/>
</g>
<path d="M0 0H92H0ZM92 1240H0H92ZM-1 1240V0H1V1240H-1ZM92 0V1240V0Z" fill="#F1F2F4" mask="url(#path-1-inside-1_223_5088)"/>
<defs>
<clipPath id="clip0_223_5088">
<path d="M0 0H86C89.3137 0 92 2.68629 92 6V1234C92 1237.31 89.3137 1240 86 1240H0V0Z" fill="white"/>
</clipPath>
</defs>
</svg>
