<svg width="60" height="1240" viewBox="0 0 60 1240" fill="none" xmlns="http://www.w3.org/2000/svg">
<g clip-path="url(#clip0_223_5019)">
<mask id="path-2-inside-1_223_5019" fill="white">
<path d="M0 0H60V40H0V0Z"/>
</mask>
<path d="M0 0H60V40H0V0Z" fill="#F7F8F9"/>
<path d="M60 40V41H61V40H60ZM60 0H59V40H60H61V0H60ZM60 40V39H0V40V41H60V40Z" fill="#F1F2F4" mask="url(#path-2-inside-1_223_5019)"/>
<path d="M41 13C42.0938 13 43 13.9062 43 15V25C43 26.125 42.0938 27 41 27H31C29.875 27 29 26.125 29 25V15C29 13.9062 29.875 13 31 13H41ZM41 14H31C30.4375 14 30 14.4688 30 15V25C30 25.5625 30.4375 26 31 26H41C41.5312 26 42 25.5625 42 25V15C42 14.4688 41.5312 14 41 14Z" fill="#8590A2"/>
<mask id="path-5-inside-2_223_5019" fill="white">
<path d="M0 40H60V100H0V40Z"/>
</mask>
<path d="M0 40H60V100H0V40Z" fill="white"/>
<path d="M60 100V101H61V100H60ZM60 40H59V100H60H61V40H60ZM60 100V99H0V100V101H60V100Z" fill="#F1F2F4" mask="url(#path-5-inside-2_223_5019)"/>
<path d="M41 63C42.0938 63 43 63.9062 43 65V75C43 76.125 42.0938 77 41 77H31C29.875 77 29 76.125 29 75V65C29 63.9062 29.875 63 31 63H41ZM41 64H31C30.4375 64 30 64.4688 30 65V75C30 75.5625 30.4375 76 31 76H41C41.5312 76 42 75.5625 42 75V65C42 64.4688 41.5312 64 41 64Z" fill="#8590A2"/>
<mask id="path-8-inside-3_223_5019" fill="white">
<path d="M0 100H60V160H0V100Z"/>
</mask>
<path d="M0 100H60V160H0V100Z" fill="white"/>
<path d="M60 160V161H61V160H60ZM60 100H59V160H60H61V100H60ZM60 160V159H0V160V161H60V160Z" fill="#F1F2F4" mask="url(#path-8-inside-3_223_5019)"/>
<path d="M41 123C42.0938 123 43 123.906 43 125V135C43 136.125 42.0938 137 41 137H31C29.875 137 29 136.125 29 135V125C29 123.906 29.875 123 31 123H41ZM41 124H31C30.4375 124 30 124.469 30 125V135C30 135.562 30.4375 136 31 136H41C41.5312 136 42 135.562 42 135V125C42 124.469 41.5312 124 41 124Z" fill="#8590A2"/>
<mask id="path-11-inside-4_223_5019" fill="white">
<path d="M0 160H60V220H0V160Z"/>
</mask>
<path d="M0 160H60V220H0V160Z" fill="white"/>
<path d="M60 220V221H61V220H60ZM60 160H59V220H60H61V160H60ZM60 220V219H0V220V221H60V220Z" fill="#F1F2F4" mask="url(#path-11-inside-4_223_5019)"/>
<path d="M41 183C42.0938 183 43 183.906 43 185V195C43 196.125 42.0938 197 41 197H31C29.875 197 29 196.125 29 195V185C29 183.906 29.875 183 31 183H41ZM41 184H31C30.4375 184 30 184.469 30 185V195C30 195.562 30.4375 196 31 196H41C41.5312 196 42 195.562 42 195V185C42 184.469 41.5312 184 41 184Z" fill="#8590A2"/>
<mask id="path-14-inside-5_223_5019" fill="white">
<path d="M0 220H60V280H0V220Z"/>
</mask>
<path d="M0 220H60V280H0V220Z" fill="white"/>
<path d="M60 280V281H61V280H60ZM60 220H59V280H60H61V220H60ZM60 280V279H0V280V281H60V280Z" fill="#F1F2F4" mask="url(#path-14-inside-5_223_5019)"/>
<path d="M41 243C42.0938 243 43 243.906 43 245V255C43 256.125 42.0938 257 41 257H31C29.875 257 29 256.125 29 255V245C29 243.906 29.875 243 31 243H41ZM41 244H31C30.4375 244 30 244.469 30 245V255C30 255.562 30.4375 256 31 256H41C41.5312 256 42 255.562 42 255V245C42 244.469 41.5312 244 41 244Z" fill="#8590A2"/>
<mask id="path-17-inside-6_223_5019" fill="white">
<path d="M0 280H60V340H0V280Z"/>
</mask>
<path d="M0 280H60V340H0V280Z" fill="white"/>
<path d="M60 340V341H61V340H60ZM60 280H59V340H60H61V280H60ZM60 340V339H0V340V341H60V340Z" fill="#F1F2F4" mask="url(#path-17-inside-6_223_5019)"/>
<path d="M41 303C42.0938 303 43 303.906 43 305V315C43 316.125 42.0938 317 41 317H31C29.875 317 29 316.125 29 315V305C29 303.906 29.875 303 31 303H41ZM41 304H31C30.4375 304 30 304.469 30 305V315C30 315.562 30.4375 316 31 316H41C41.5312 316 42 315.562 42 315V305C42 304.469 41.5312 304 41 304Z" fill="#8590A2"/>
<mask id="path-20-inside-7_223_5019" fill="white">
<path d="M0 340H60V400H0V340Z"/>
</mask>
<path d="M0 340H60V400H0V340Z" fill="white"/>
<path d="M60 400V401H61V400H60ZM60 340H59V400H60H61V340H60ZM60 400V399H0V400V401H60V400Z" fill="#F1F2F4" mask="url(#path-20-inside-7_223_5019)"/>
<path d="M41 363C42.0938 363 43 363.906 43 365V375C43 376.125 42.0938 377 41 377H31C29.875 377 29 376.125 29 375V365C29 363.906 29.875 363 31 363H41ZM41 364H31C30.4375 364 30 364.469 30 365V375C30 375.562 30.4375 376 31 376H41C41.5312 376 42 375.562 42 375V365C42 364.469 41.5312 364 41 364Z" fill="#8590A2"/>
<mask id="path-23-inside-8_223_5019" fill="white">
<path d="M0 400H60V460H0V400Z"/>
</mask>
<path d="M0 400H60V460H0V400Z" fill="white"/>
<path d="M60 460V461H61V460H60ZM60 400H59V460H60H61V400H60ZM60 460V459H0V460V461H60V460Z" fill="#F1F2F4" mask="url(#path-23-inside-8_223_5019)"/>
<path d="M41 423C42.0938 423 43 423.906 43 425V435C43 436.125 42.0938 437 41 437H31C29.875 437 29 436.125 29 435V425C29 423.906 29.875 423 31 423H41ZM41 424H31C30.4375 424 30 424.469 30 425V435C30 435.562 30.4375 436 31 436H41C41.5312 436 42 435.562 42 435V425C42 424.469 41.5312 424 41 424Z" fill="#8590A2"/>
<mask id="path-26-inside-9_223_5019" fill="white">
<path d="M0 460H60V520H0V460Z"/>
</mask>
<path d="M0 460H60V520H0V460Z" fill="white"/>
<path d="M60 520V521H61V520H60ZM60 460H59V520H60H61V460H60ZM60 520V519H0V520V521H60V520Z" fill="#F1F2F4" mask="url(#path-26-inside-9_223_5019)"/>
<path d="M41 483C42.0938 483 43 483.906 43 485V495C43 496.125 42.0938 497 41 497H31C29.875 497 29 496.125 29 495V485C29 483.906 29.875 483 31 483H41ZM41 484H31C30.4375 484 30 484.469 30 485V495C30 495.562 30.4375 496 31 496H41C41.5312 496 42 495.562 42 495V485C42 484.469 41.5312 484 41 484Z" fill="#8590A2"/>
<mask id="path-29-inside-10_223_5019" fill="white">
<path d="M0 520H60V580H0V520Z"/>
</mask>
<path d="M0 520H60V580H0V520Z" fill="white"/>
<path d="M60 580V581H61V580H60ZM60 520H59V580H60H61V520H60ZM60 580V579H0V580V581H60V580Z" fill="#F1F2F4" mask="url(#path-29-inside-10_223_5019)"/>
<path d="M41 543C42.0938 543 43 543.906 43 545V555C43 556.125 42.0938 557 41 557H31C29.875 557 29 556.125 29 555V545C29 543.906 29.875 543 31 543H41ZM41 544H31C30.4375 544 30 544.469 30 545V555C30 555.562 30.4375 556 31 556H41C41.5312 556 42 555.562 42 555V545C42 544.469 41.5312 544 41 544Z" fill="#8590A2"/>
<mask id="path-32-inside-11_223_5019" fill="white">
<path d="M0 580H60V640H0V580Z"/>
</mask>
<path d="M0 580H60V640H0V580Z" fill="white"/>
<path d="M60 640V641H61V640H60ZM60 580H59V640H60H61V580H60ZM60 640V639H0V640V641H60V640Z" fill="#F1F2F4" mask="url(#path-32-inside-11_223_5019)"/>
<path d="M41 603C42.0938 603 43 603.906 43 605V615C43 616.125 42.0938 617 41 617H31C29.875 617 29 616.125 29 615V605C29 603.906 29.875 603 31 603H41ZM41 604H31C30.4375 604 30 604.469 30 605V615C30 615.562 30.4375 616 31 616H41C41.5312 616 42 615.562 42 615V605C42 604.469 41.5312 604 41 604Z" fill="#8590A2"/>
<mask id="path-35-inside-12_223_5019" fill="white">
<path d="M0 640H60V700H0V640Z"/>
</mask>
<path d="M0 640H60V700H0V640Z" fill="white"/>
<path d="M60 700V701H61V700H60ZM60 640H59V700H60H61V640H60ZM60 700V699H0V700V701H60V700Z" fill="#F1F2F4" mask="url(#path-35-inside-12_223_5019)"/>
<path d="M41 663C42.0938 663 43 663.906 43 665V675C43 676.125 42.0938 677 41 677H31C29.875 677 29 676.125 29 675V665C29 663.906 29.875 663 31 663H41ZM41 664H31C30.4375 664 30 664.469 30 665V675C30 675.562 30.4375 676 31 676H41C41.5312 676 42 675.562 42 675V665C42 664.469 41.5312 664 41 664Z" fill="#8590A2"/>
<mask id="path-38-inside-13_223_5019" fill="white">
<path d="M0 700H60V760H0V700Z"/>
</mask>
<path d="M0 700H60V760H0V700Z" fill="white"/>
<path d="M60 760V761H61V760H60ZM60 700H59V760H60H61V700H60ZM60 760V759H0V760V761H60V760Z" fill="#F1F2F4" mask="url(#path-38-inside-13_223_5019)"/>
<path d="M41 723C42.0938 723 43 723.906 43 725V735C43 736.125 42.0938 737 41 737H31C29.875 737 29 736.125 29 735V725C29 723.906 29.875 723 31 723H41ZM41 724H31C30.4375 724 30 724.469 30 725V735C30 735.562 30.4375 736 31 736H41C41.5312 736 42 735.562 42 735V725C42 724.469 41.5312 724 41 724Z" fill="#8590A2"/>
<mask id="path-41-inside-14_223_5019" fill="white">
<path d="M0 760H60V820H0V760Z"/>
</mask>
<path d="M0 760H60V820H0V760Z" fill="white"/>
<path d="M60 820V821H61V820H60ZM60 760H59V820H60H61V760H60ZM60 820V819H0V820V821H60V820Z" fill="#F1F2F4" mask="url(#path-41-inside-14_223_5019)"/>
<path d="M41 783C42.0938 783 43 783.906 43 785V795C43 796.125 42.0938 797 41 797H31C29.875 797 29 796.125 29 795V785C29 783.906 29.875 783 31 783H41ZM41 784H31C30.4375 784 30 784.469 30 785V795C30 795.562 30.4375 796 31 796H41C41.5312 796 42 795.562 42 795V785C42 784.469 41.5312 784 41 784Z" fill="#8590A2"/>
<mask id="path-44-inside-15_223_5019" fill="white">
<path d="M0 820H60V880H0V820Z"/>
</mask>
<path d="M0 820H60V880H0V820Z" fill="white"/>
<path d="M60 880V881H61V880H60ZM60 820H59V880H60H61V820H60ZM60 880V879H0V880V881H60V880Z" fill="#F1F2F4" mask="url(#path-44-inside-15_223_5019)"/>
<path d="M41 843C42.0938 843 43 843.906 43 845V855C43 856.125 42.0938 857 41 857H31C29.875 857 29 856.125 29 855V845C29 843.906 29.875 843 31 843H41ZM41 844H31C30.4375 844 30 844.469 30 845V855C30 855.562 30.4375 856 31 856H41C41.5312 856 42 855.562 42 855V845C42 844.469 41.5312 844 41 844Z" fill="#8590A2"/>
<mask id="path-47-inside-16_223_5019" fill="white">
<path d="M0 880H60V940H0V880Z"/>
</mask>
<path d="M0 880H60V940H0V880Z" fill="white"/>
<path d="M60 940V941H61V940H60ZM60 880H59V940H60H61V880H60ZM60 940V939H0V940V941H60V940Z" fill="#F1F2F4" mask="url(#path-47-inside-16_223_5019)"/>
<path d="M41 903C42.0938 903 43 903.906 43 905V915C43 916.125 42.0938 917 41 917H31C29.875 917 29 916.125 29 915V905C29 903.906 29.875 903 31 903H41ZM41 904H31C30.4375 904 30 904.469 30 905V915C30 915.562 30.4375 916 31 916H41C41.5312 916 42 915.562 42 915V905C42 904.469 41.5312 904 41 904Z" fill="#8590A2"/>
<mask id="path-50-inside-17_223_5019" fill="white">
<path d="M0 940H60V1000H0V940Z"/>
</mask>
<path d="M0 940H60V1000H0V940Z" fill="white"/>
<path d="M60 1000V1001H61V1000H60ZM60 940H59V1000H60H61V940H60ZM60 1000V999H0V1000V1001H60V1000Z" fill="#F1F2F4" mask="url(#path-50-inside-17_223_5019)"/>
<path d="M41 963C42.0938 963 43 963.906 43 965V975C43 976.125 42.0938 977 41 977H31C29.875 977 29 976.125 29 975V965C29 963.906 29.875 963 31 963H41ZM41 964H31C30.4375 964 30 964.469 30 965V975C30 975.562 30.4375 976 31 976H41C41.5312 976 42 975.562 42 975V965C42 964.469 41.5312 964 41 964Z" fill="#8590A2"/>
<mask id="path-53-inside-18_223_5019" fill="white">
<path d="M0 1000H60V1060H0V1000Z"/>
</mask>
<path d="M0 1000H60V1060H0V1000Z" fill="white"/>
<path d="M60 1060V1061H61V1060H60ZM60 1000H59V1060H60H61V1000H60ZM60 1060V1059H0V1060V1061H60V1060Z" fill="#F1F2F4" mask="url(#path-53-inside-18_223_5019)"/>
<path d="M41 1023C42.0938 1023 43 1023.91 43 1025V1035C43 1036.12 42.0938 1037 41 1037H31C29.875 1037 29 1036.12 29 1035V1025C29 1023.91 29.875 1023 31 1023H41ZM41 1024H31C30.4375 1024 30 1024.47 30 1025V1035C30 1035.56 30.4375 1036 31 1036H41C41.5312 1036 42 1035.56 42 1035V1025C42 1024.47 41.5312 1024 41 1024Z" fill="#8590A2"/>
<mask id="path-56-inside-19_223_5019" fill="white">
<path d="M0 1060H60V1120H0V1060Z"/>
</mask>
<path d="M0 1060H60V1120H0V1060Z" fill="white"/>
<path d="M60 1120V1121H61V1120H60ZM60 1060H59V1120H60H61V1060H60ZM60 1120V1119H0V1120V1121H60V1120Z" fill="#F1F2F4" mask="url(#path-56-inside-19_223_5019)"/>
<path d="M41 1083C42.0938 1083 43 1083.91 43 1085V1095C43 1096.12 42.0938 1097 41 1097H31C29.875 1097 29 1096.12 29 1095V1085C29 1083.91 29.875 1083 31 1083H41ZM41 1084H31C30.4375 1084 30 1084.47 30 1085V1095C30 1095.56 30.4375 1096 31 1096H41C41.5312 1096 42 1095.56 42 1095V1085C42 1084.47 41.5312 1084 41 1084Z" fill="#8590A2"/>
<mask id="path-59-inside-20_223_5019" fill="white">
<path d="M0 1120H60V1180H0V1120Z"/>
</mask>
<path d="M0 1120H60V1180H0V1120Z" fill="white"/>
<path d="M60 1180V1181H61V1180H60ZM60 1120H59V1180H60H61V1120H60ZM60 1180V1179H0V1180V1181H60V1180Z" fill="#F1F2F4" mask="url(#path-59-inside-20_223_5019)"/>
<path d="M41 1143C42.0938 1143 43 1143.91 43 1145V1155C43 1156.12 42.0938 1157 41 1157H31C29.875 1157 29 1156.12 29 1155V1145C29 1143.91 29.875 1143 31 1143H41ZM41 1144H31C30.4375 1144 30 1144.47 30 1145V1155C30 1155.56 30.4375 1156 31 1156H41C41.5312 1156 42 1155.56 42 1155V1145C42 1144.47 41.5312 1144 41 1144Z" fill="#8590A2"/>
<mask id="path-62-inside-21_223_5019" fill="white">
<path d="M0 1180H60V1240H0V1180Z"/>
</mask>
<path d="M0 1180H60V1240H0V1180Z" fill="white"/>
<path d="M60 1240V1241H61V1240H60ZM60 1180H59V1240H60H61V1180H60ZM60 1240V1239H0V1240V1241H60V1240Z" fill="#F1F2F4" mask="url(#path-62-inside-21_223_5019)"/>
<path d="M41 1203C42.0938 1203 43 1203.91 43 1205V1215C43 1216.12 42.0938 1217 41 1217H31C29.875 1217 29 1216.12 29 1215V1205C29 1203.91 29.875 1203 31 1203H41ZM41 1204H31C30.4375 1204 30 1204.47 30 1205V1215C30 1215.56 30.4375 1216 31 1216H41C41.5312 1216 42 1215.56 42 1215V1205C42 1204.47 41.5312 1204 41 1204Z" fill="#8590A2"/>
</g>
<defs>
<clipPath id="clip0_223_5019">
<path d="M0 5.99999C0 2.68629 2.68629 0 6 0H60V1240H6C2.68629 1240 0 1237.31 0 1234V5.99999Z" fill="white"/>
</clipPath>
</defs>
</svg>
